<?xml version="1.0" encoding="UTF-8"?>
<svg version="1.1" xmlns="http://www.w3.org/2000/svg" width="700" height="700">
<path d="M0 0 C12.68111189 2.18240778 12.68111189 2.18240778 15.99609375 6.515625 C16.31889343 9.15461731 16.31889343 9.15461731 16.24487305 12.38989258 C16.22464081 13.6132431 16.20440857 14.83659363 16.18356323 16.09701538 C16.14597872 17.45140028 16.10822297 18.80578044 16.0703125 20.16015625 C16.04200635 21.57896127 16.01519512 22.9977968 15.98977661 24.41665649 C15.93279347 27.46118192 15.86697849 30.5053382 15.79434204 33.54953003 C15.62272041 40.7946408 15.50195385 48.04069314 15.37556267 55.28670692 C15.33176435 57.77296313 15.2862989 60.25918488 15.24061584 62.7454071 C14.96785598 77.81986281 14.83559793 92.89272921 14.81582642 107.96957397 C14.81105146 110.5994881 14.80216238 113.22939838 14.78890991 115.85928345 C13.34033133 142.29540708 13.34033133 142.29540708 22.3515625 166.21484375 C25.03424838 168.33677819 27.47327341 168.0534586 30.78125 167.9140625 C34.56033879 167.23422642 35.82611824 165.61559001 37.99609375 162.515625 C41.15937486 155.87809617 43.13194346 149.92619162 43.08943176 142.5567627 C43.08502579 141.33699234 43.08061981 140.11722198 43.07608032 138.86048889 C43.06616241 137.51180985 43.05618104 136.16313127 43.04614258 134.81445312 C43.03931084 133.39180219 43.0329808 131.96914877 43.02711487 130.54649353 C43.01379296 127.48482914 42.99765572 124.42319684 42.97956276 121.36155701 C42.95172132 116.52104508 42.93471912 111.68053355 42.92008972 106.83996582 C42.91494603 105.18242641 42.9097894 103.52488705 42.90462017 101.86734772 C42.90203461 101.03737432 42.89944905 100.20740091 42.89678514 99.3522768 C42.86073412 88.08422006 42.81529416 76.81626218 42.74926758 65.54833984 C42.70480295 57.94526286 42.67452587 50.34227184 42.66041011 42.73907614 C42.65233016 38.71579838 42.63678715 34.69284945 42.60373878 30.66969299 C42.57272284 26.88740142 42.56021094 23.10550552 42.56195641 19.32309151 C42.55925711 17.93471233 42.54967687 16.546327 42.5327301 15.15804863 C42.51060634 13.26365387 42.51550903 11.36900079 42.52180481 9.4744873 C42.51681882 8.41408989 42.51183283 7.35369247 42.50669575 6.2611618 C43.12111475 2.81425362 44.25324813 1.62765153 46.99609375 -0.484375 C54.34175375 -1.33481321 61.69625505 0.7724473 67.99609375 4.515625 C69.99609375 6.515625 69.99609375 6.515625 70.19863892 9.35394287 C70.1764328 10.57228821 70.15422668 11.79063354 70.13134766 13.04589844 C70.12189464 13.72127718 70.11244162 14.39665592 70.10270214 15.09250069 C70.06878942 17.35359421 70.02058686 19.61416358 69.97265625 21.875 C69.94626425 23.47460374 69.92086815 25.07422419 69.89640808 26.67385864 C69.84259107 30.09061046 69.78298176 33.50719248 69.71890259 36.92376709 C69.56932974 44.95137567 69.45468365 52.97951848 69.33664131 61.00764084 C69.29678064 63.70168968 69.25587814 66.39572124 69.21482849 69.0897522 C68.99906183 83.39847861 68.84513092 97.70575068 68.8168335 112.01623535 C68.81141025 114.23719589 68.80211465 116.4581509 68.78863525 118.67907715 C67.87409761 142.42797575 67.87409761 142.42797575 74.99609375 164.515625 C78.1858842 167.44125061 80.63381792 168.10556037 85.03125 167.93359375 C88.45513985 167.20525138 89.94926884 165.22465797 91.99609375 162.515625 C95.15378693 156.95207035 94.4092376 151.02007997 93 145.04296875 C91.74814548 138.94340008 91.65224059 132.975822 91.68359375 126.765625 C91.69096558 125.04146362 91.69096558 125.04146362 91.69848633 123.2824707 C91.96963395 103.63052569 97.86599905 84.41135376 111.45703125 69.8203125 C119.38953604 62.62003892 127.67284471 60.17413609 138.15625 60.30078125 C146.86603529 60.95970586 155.0121319 65.20126034 160.99609375 71.515625 C161.47046875 70.54625 161.94484375 69.576875 162.43359375 68.578125 C163.99609375 65.515625 163.99609375 65.515625 164.99609375 64.515625 C172.91584915 64.00467304 180.05161728 65.26965942 187.30078125 68.5625 C190.0776908 71.76170455 189.44328288 75.43148326 189.30859375 79.453125 C189.293125 80.39897461 189.27765625 81.34482422 189.26171875 82.31933594 C189.1977532 85.71910501 189.09876219 89.11680644 188.99609375 92.515625 C188.95713756 93.89663641 188.91857927 95.2776591 188.88037109 96.65869141 C188.7328918 101.97401499 188.58180813 107.28923505 188.42874146 112.60440063 C188.13637058 122.78212168 187.84758273 132.95889192 187.74609375 143.140625 C187.72482422 144.15737305 187.70355469 145.17412109 187.68164062 146.22167969 C187.65178886 152.54385685 188.13040732 158.77212082 190.99609375 164.515625 C192.80095642 166.36724851 192.80095642 166.36724851 194.99609375 167.515625 C199.655781 167.39357816 199.655781 167.39357816 203.61193848 165.18814087 C216.48662715 149.6312727 211.45811943 116.58492064 211.50140381 97.55621338 C211.51292778 92.99688053 211.53636544 88.43791929 211.57609558 83.87874222 C211.58961083 81.76302511 211.58551463 79.64781678 211.58068848 77.53207397 C211.59079956 76.25869171 211.60091064 74.98530945 211.61132812 73.67333984 C211.61338257 72.55309418 211.61543701 71.43284851 211.61755371 70.27865601 C211.99609375 67.515625 211.99609375 67.515625 213.3013916 65.65420532 C216.30674141 63.63507048 219.55772577 64.08863813 222.99609375 64.515625 C228.16276347 65.62888533 233.40728222 66.80781279 237.99609375 69.515625 C239.64589445 72.81522641 239.37867736 76.50690384 239.55859375 80.140625 C239.60177734 80.94242187 239.64496094 81.74421875 239.68945312 82.5703125 C239.79560832 84.5518761 239.8963623 86.53372771 239.99609375 88.515625 C240.48916016 87.39027344 240.48916016 87.39027344 240.9921875 86.2421875 C246.02024284 75.42301151 252.6948874 66.20505004 263.80859375 61.265625 C268.66201867 60.12364266 273.31658604 59.35915154 278.0234375 61.390625 C282.49086156 64.26186583 284.48294817 67.3531283 285.99609375 72.515625 C286.55080367 77.78536921 285.73119621 80.99218632 282.99609375 85.515625 C280.99609375 87.515625 280.99609375 87.515625 277.29296875 87.5703125 C275.01595619 87.49427869 272.74339215 87.39047208 270.46875 87.26171875 C265.10959189 87.10272104 262.25195754 87.95126049 257.99609375 91.515625 C248.3979999 101.28783393 245.05352538 115.58752102 241.99609375 128.515625 C241.80700439 129.25425781 241.61791504 129.99289062 241.4230957 130.75390625 C238.97840036 141.75668043 239.60990248 153.31022658 239.53979492 164.52197266 C239.51823319 167.4159839 239.47886007 170.30933914 239.4375 173.203125 C239.43738419 174.09370605 239.43726837 174.98428711 239.43714905 175.90185547 C239.42381027 176.7270166 239.4104715 177.55217773 239.39672852 178.40234375 C239.39165787 179.12639404 239.38658722 179.85044434 239.38136292 180.59643555 C238.88235296 183.08221621 237.9790832 183.97830168 235.99609375 185.515625 C228.54826396 186.67190908 220.89024085 185.50949764 213.99609375 182.515625 C211.63656281 180.15609406 211.50467962 178.73666883 210.99609375 175.515625 C210.52300781 175.98613281 210.04992187 176.45664062 209.5625 176.94140625 C203.48226781 182.6660693 197.88727518 185.48613751 189.49609375 185.953125 C182.37180069 185.64283349 176.93584278 182.91235978 172.12109375 177.703125 C169.26691421 174.17347838 167.50702649 170.78178803 165.99609375 166.515625 C165.59519531 167.09570312 165.19429687 167.67578125 164.78125 168.2734375 C158.49464737 176.91217037 150.56590725 182.74396652 140.05859375 185.203125 C128.58675298 186.373721 119.30861552 184.62294162 109.99609375 177.515625 C107.12751994 174.6656481 104.51265319 171.67889804 101.99609375 168.515625 C101.52171875 169.175625 101.04734375 169.835625 100.55859375 170.515625 C94.06277569 178.12048517 87.22525829 184.23697943 76.99609375 185.515625 C70.35504227 186.01683643 65.14242802 184.99773314 59.88671875 180.8515625 C55.08773199 176.32319529 51.84875474 171.44038244 48.99609375 165.515625 C48.33609375 166.505625 47.67609375 167.495625 46.99609375 168.515625 C40.29336966 178.16593258 33.71688396 183.75628637 21.859375 185.90234375 C15.18683195 186.29484628 8.81099296 183.88348088 3.7578125 179.6328125 C-9.43707667 165.76699676 -11.14909191 147.00132602 -11.16503906 128.8034668 C-11.16967509 127.4278602 -11.17470079 126.05225487 -11.18008423 124.676651 C-11.19312245 120.96216618 -11.19963463 117.24769935 -11.20409489 113.53319526 C-11.20703556 111.21144163 -11.21114189 108.88969284 -11.21559906 106.56794167 C-11.22924254 99.29949267 -11.23892828 92.03105483 -11.24280095 84.76259392 C-11.24729399 76.37754838 -11.26491241 67.99266484 -11.29380155 59.60766858 C-11.31538668 53.11748949 -11.32550329 46.62735614 -11.32684207 40.13714153 C-11.32789107 36.26327151 -11.33382058 32.38955446 -11.35166168 28.51572227 C-11.36809082 24.87866749 -11.37032331 21.24188166 -11.36152267 17.60480309 C-11.36038082 15.63138252 -11.37413228 13.65797105 -11.38827515 11.68460083 C-11.38270599 10.51405655 -11.37713684 9.34351227 -11.37139893 8.13749695 C-11.37359877 6.60861863 -11.37359877 6.60861863 -11.37584305 5.04885387 C-11.00390625 2.515625 -11.00390625 2.515625 -9.62766647 0.67548847 C-6.64334786 -1.45623153 -3.46874805 -0.42380454 0 0 Z M129.4375 87.43359375 C118.04064539 103.49150611 116.09452668 123.7586502 118.68359375 142.828125 C120.47970642 151.84584929 123.24887838 160.45691958 130.75390625 166.234375 C136.06072823 169.26684471 140.83192224 170.05666788 146.74609375 168.578125 C156.01184126 162.69793908 158.09459292 154.58246671 160.53100586 144.24633789 C161.40794848 139.09746482 161.22162991 133.87396995 161.23632812 128.6628418 C161.24591965 126.61529078 161.27692537 124.56879541 161.30859375 122.52148438 C161.40968565 110.01858901 160.10716696 97.17180803 152.99609375 86.515625 C148.4826934 82.21215025 145.40165259 81.13293827 139.3046875 81.25 C134.78630081 81.76988206 132.24044756 83.98435252 129.4375 87.43359375 Z " fill="#4C2969" transform="translate(238.00390625,257.484375)"/>
<path d="M0 0 C2.27624036 1.10966717 3.35048753 1.86337048 4.875 3.9140625 C5.23576355 7.08415222 5.23576355 7.08415222 5.21557617 11.04760742 C5.21623329 12.13091087 5.21623329 12.13091087 5.21690369 13.23609924 C5.21481414 15.62251855 5.19147613 18.00823473 5.16796875 20.39453125 C5.16237336 22.04933793 5.158103 23.70414958 5.15510559 25.35896301 C5.14365224 29.71399664 5.11418098 34.06873001 5.08099365 38.42364502 C5.05030326 42.86767515 5.03660247 47.31175381 5.02148438 51.75585938 C4.98931162 60.47539819 4.93810952 69.19469299 4.875 77.9140625 C5.7729126 77.7711377 6.6708252 77.62821289 7.59594727 77.48095703 C17.09187177 76.07755806 26.19765332 75.66561262 35.8125 75.7890625 C37.18944645 75.79913574 38.56640022 75.80825374 39.94335938 75.81640625 C43.25410195 75.83963953 46.56444838 75.87229911 49.875 75.9140625 C49.86611755 74.98333923 49.85723511 74.05261597 49.8480835 73.09368896 C49.76701056 64.32418189 49.70704093 55.55475082 49.66775131 46.78495407 C49.64687298 42.27623633 49.61855111 37.76782102 49.57324219 33.25927734 C49.52979281 28.90856197 49.50586475 24.55813757 49.49549103 20.20722198 C49.48809798 18.5469937 49.47366102 16.88678141 49.45207977 15.22667694 C49.4230568 12.90174401 49.41904337 10.57801451 49.42089844 8.25292969 C49.40651733 7.5660054 49.39213623 6.87908112 49.37731934 6.17134094 C49.40615988 2.83257227 49.68631196 1.1612528 51.73687744 -1.52508545 C55.32164879 -4.1420064 58.45847861 -3.20861977 62.68359375 -2.7109375 C67.25958779 -1.814782 73.45473144 -0.50620606 76.875 2.9140625 C76.97650554 5.20036593 77.00578311 7.48987339 77.00871277 9.77842712 C77.01097833 10.50474274 77.01324388 11.23105835 77.01557809 11.97938353 C77.02194633 14.43150263 77.02108693 16.88356686 77.02026367 19.33569336 C77.0232534 21.08626884 77.02665549 22.83684366 77.03044128 24.5874176 C77.03930434 29.35593915 77.04162036 34.12444277 77.04225707 38.89297175 C77.04320423 42.86687523 77.04688027 46.84077449 77.05042917 50.81467634 C77.05858245 60.18626751 77.0610126 69.55784906 77.06030273 78.92944336 C77.05970167 88.61277837 77.07025713 98.29605772 77.0860464 107.97937864 C77.09909993 116.27915172 77.10448756 124.57890655 77.10384732 132.87868983 C77.1035917 137.84191088 77.10647844 142.8050825 77.11702538 147.76829338 C77.1266697 152.43445469 77.1268109 157.10051895 77.11950874 161.76668358 C77.11845832 163.48321931 77.12085269 165.19976096 77.1268692 166.91628647 C77.13452789 169.25187847 77.12998546 171.58713014 77.12223816 173.92271423 C77.12278293 175.23220504 77.12332769 176.54169584 77.12388897 177.89086819 C76.875 180.9140625 76.875 180.9140625 74.875 182.9140625 C66.41841512 183.98514689 58.4555292 182.877927 50.875 178.9140625 C49.34990511 175.86387272 49.74524056 172.68856637 49.76147461 169.34326172 C49.76132858 168.56268402 49.76118256 167.78210632 49.7610321 166.97787476 C49.76173014 164.39147181 49.76951743 161.80514041 49.77734375 159.21875 C49.77920832 157.42798909 49.78063204 155.63722767 49.78163147 153.84646606 C49.78545359 149.12822059 49.79528129 144.4100058 49.80633545 139.69177246 C49.81655611 134.87915461 49.8211305 130.06653182 49.82617188 125.25390625 C49.83690381 115.80727817 49.8539766 106.36067288 49.875 96.9140625 C48.39 97.4090625 48.39 97.4090625 46.875 97.9140625 C45.00292512 98.17438429 43.12552097 98.39719401 41.24609375 98.59765625 C40.12783203 98.72076172 39.00957031 98.84386719 37.85742188 98.97070312 C35.52158704 99.22166059 33.18565158 99.4716834 30.84960938 99.72070312 C24.87301875 100.38021255 19.03581761 101.16820077 13.17602539 102.53149414 C10.38633253 102.99530833 7.69876785 102.93770164 4.875 102.9140625 C4.88166183 103.85731384 4.88832367 104.80056519 4.89518738 105.7723999 C4.95599039 114.65966786 5.00096871 123.54689363 5.03043652 132.43432236 C5.0460955 137.00350358 5.06733799 141.57251695 5.10131836 146.14160156 C5.13390357 150.55065817 5.15185126 154.95955328 5.15963173 159.36872101 C5.16517675 161.05125725 5.1760048 162.73378461 5.19219017 164.41625214 C5.21395363 166.7721622 5.21696743 169.1274041 5.21557617 171.48339844 C5.226362 172.17967346 5.23714783 172.87594849 5.2482605 173.59332275 C5.2288518 176.62875773 5.01039077 178.66911284 3.52998352 181.34747314 C1.04607953 183.69870958 -0.89127179 183.41111442 -4.25 183.3515625 C-10.6441976 183.15866492 -17.4125805 182.626482 -22.125 177.9140625 C-22.36550903 175.16793823 -22.36550903 175.16793823 -22.35205078 171.62841797 C-22.35234283 170.98439026 -22.35263489 170.34036255 -22.35293579 169.67681885 C-22.35154074 167.54482623 -22.33597174 165.41318168 -22.3203125 163.28125 C-22.31658298 161.80437409 -22.31373572 160.32749572 -22.31173706 158.85061646 C-22.30409574 154.96088852 -22.28444308 151.07130962 -22.2623291 147.18164062 C-22.24188135 143.21356218 -22.23273764 139.24545968 -22.22265625 135.27734375 C-22.20119756 127.48951534 -22.16705572 119.70180979 -22.125 111.9140625 C-23.25615234 112.20410156 -23.25615234 112.20410156 -24.41015625 112.5 C-27.71891854 113.00464576 -29.53615675 112.17687756 -32.34765625 110.4296875 C-36.25235348 107.09996767 -38.84900663 102.46604925 -41.125 97.9140625 C-41.58922487 92.06482911 -41.58922487 92.06482911 -41.125 89.9140625 C-38.31260398 87.1475564 -35.39272216 86.20472114 -31.625 85.2265625 C-30.6865625 84.97519531 -29.748125 84.72382813 -28.78125 84.46484375 C-26.125 83.9140625 -26.125 83.9140625 -22.125 83.9140625 C-22.13388245 82.86836594 -22.14276489 81.82266937 -22.1519165 80.74528503 C-22.23292575 70.9011797 -22.2929285 61.0571418 -22.33224869 51.21277905 C-22.3531431 46.15139587 -22.38149454 41.0902813 -22.42675781 36.02905273 C-22.47014948 31.14666916 -22.49412313 26.26454429 -22.50450897 21.3819828 C-22.51191237 19.51718382 -22.52636917 17.65239934 -22.54792023 15.78771019 C-22.57686582 13.18001846 -22.58095978 10.57340213 -22.57910156 7.96557617 C-22.59348267 7.19089996 -22.60786377 6.41622375 -22.62268066 5.61807251 C-22.58232343 0.40034766 -22.58232343 0.40034766 -20.25164795 -2.07792664 C-14.21525155 -4.93912101 -6.01625435 -2.01279098 0 0 Z " fill="#4C2969" transform="translate(41.125,260.0859375)"/>
<path d="M0 0 C6.78917793 0.48811083 14.42478769 2.80402513 20.0625 6.5625 C20.42326355 8.95592117 20.42326355 8.95592117 20.40307617 12.02374268 C20.40286469 13.18424133 20.4026532 14.34473999 20.4024353 15.54040527 C20.37918686 17.46028259 20.37918686 17.46028259 20.35546875 19.41894531 C20.34971292 20.77581288 20.34532072 22.13268682 20.3421936 23.48956299 C20.33269233 26.41765294 20.31385789 29.34548497 20.28799438 32.27347565 C20.2474322 36.91494307 20.22974219 41.5563243 20.21557617 46.19793701 C20.17940501 56.90500144 20.11357622 67.61184559 20.04689026 78.3187561 C19.98618471 88.09981012 19.93195295 97.88078427 19.90224552 107.66198802 C19.88740709 112.26289261 19.85798709 116.86339062 19.81695557 121.46413279 C19.79433199 124.34920628 19.78458084 127.23422666 19.7780571 130.11937714 C19.76989837 132.06573954 19.7465882 134.01202071 19.7225647 135.95825195 C19.72071836 146.3851233 20.18406862 159.15552831 27.0625 167.5625 C30.82133327 169.30270059 33.1516486 169.66965899 37.25 169.1875 C41.30790594 166.84293212 42.30904263 163.77079768 44.0625 159.5625 C45.0625 157.5625 46.0625 155.5625 47.0625 153.5625 C49.0425 153.8925 51.0225 154.2225 53.0625 154.5625 C54.86050566 161.30502124 53.13691271 166.40481461 50.0625 172.5625 C45.66351964 179.28032272 39.41940298 184.26460838 31.53125 186.17578125 C24.00324641 187.35500966 18.32820558 186.60943256 12.09375 182.15625 C6.64910698 177.71677185 2.8466343 172.43973358 -0.9375 166.5625 C-1.36160156 167.14257812 -1.78570313 167.72265625 -2.22265625 168.3203125 C-9.12346825 177.51128409 -16.34322399 184.19861848 -27.9375 186.5625 C-36.90839874 187.40758466 -46.69096314 186.22917308 -54.1875 180.9375 C-68.06280992 169.22569995 -73.91699752 154.37430828 -75.9375 136.5625 C-76.88071672 114.60529218 -73.62211858 92.20645825 -59.546875 74.56640625 C-52.917827 67.55170609 -45.11082442 62.21268245 -35.30859375 61.32421875 C-26.19455409 61.09363719 -18.71522175 62.75451305 -11.27075195 68.14770508 C-10.6451387 68.59946609 -10.01952545 69.05122711 -9.37495422 69.51667786 C-8.90059433 69.86179916 -8.42623444 70.20692047 -7.9375 70.5625 C-7.93385437 69.75927811 -7.93020874 68.95605621 -7.92645264 68.12849426 C-7.88855244 60.55096667 -7.83167744 52.97392962 -7.75359726 45.39671803 C-7.71412347 41.50135958 -7.6819348 37.60622713 -7.66650391 33.71069336 C-7.65133622 29.94973507 -7.61688997 26.18939812 -7.56919098 22.42871666 C-7.5543781 20.99549453 -7.54645903 19.56218369 -7.54561615 18.12888527 C-7.54324486 16.1181259 -7.51387174 14.10745367 -7.48339844 12.09692383 C-7.47007477 10.38150139 -7.47007477 10.38150139 -7.45648193 8.63142395 C-6.66097902 3.92733353 -4.79936228 0.91902682 0 0 Z M-39 89.9375 C-50.06640393 105.53502995 -50.62116749 127.2159552 -48.47265625 145.5234375 C-46.79166162 153.89857049 -43.48134744 161.18348267 -37.25 167.125 C-32.11934592 170.31432551 -26.79527612 170.10956242 -20.9375 169.5625 C-14.93173935 167.29617523 -12.96370987 162.49678108 -10.234375 157.0234375 C-3.45487209 138.93114962 -3.29569941 112.91123181 -10.25 94.8125 C-12.90752174 89.08981306 -15.6879881 86.0621746 -20.9375 82.5625 C-28.92328259 81.25435276 -33.85026127 83.84669226 -39 89.9375 Z " fill="#4E2B6A" transform="translate(596.9375,256.4375)"/>
<path d="M0 0 C12.67379587 10.10590259 19.12349586 25.18277455 21.6171875 40.88671875 C23.98588165 62.80113178 21.04243079 85.8319992 7.1328125 103.62890625 C-0.267043 111.85548554 -9.61554436 117.38332151 -20.76171875 118.203125 C-32.56408322 118.39221495 -41.56415179 115.49401676 -50.5625 107.8125 C-65.8828142 90.13521438 -68.08423892 69.67963562 -67 47 C-65.56732821 31.01304949 -59.11857446 12.68154177 -47.09375 1.53125 C-32.23844007 -9.33308114 -15.46645973 -9.79862666 0 0 Z M-29 21.25 C-39.96872523 36.72167559 -41.81627644 57.65425407 -39.5 75.94921875 C-37.59102813 85.98216749 -34.5559949 94.04800355 -26 100 C-20.2323764 101.9225412 -14.12025209 102.02086212 -8.625 99.375 C2.30954941 89.48183625 5.25034282 76.67973148 6.25390625 62.3828125 C6.52847412 46.23822194 4.54499713 29.8361876 -6 17 C-9.62934864 13.76301338 -13.07937764 13.4648956 -17.796875 13.66015625 C-22.78172628 14.42909608 -25.84725149 17.56772008 -29 21.25 Z " fill="#4E2B6A" transform="translate(196,325)"/>
<path d="M0 0 C7.87495627 7.79377115 7.87495627 7.79377115 8.11352539 13.91088867 C8.10828857 15.0682251 8.10305176 16.22556152 8.09765625 17.41796875 C8.09443359 18.67158203 8.09121094 19.92519531 8.08789062 21.21679688 C8.07532227 23.18229492 8.07532227 23.18229492 8.0625 25.1875 C8.05748317 26.52278481 8.05292059 27.85807141 8.04882812 29.19335938 C8.03702695 32.46228473 8.02056297 35.73111991 8 39 C4.16707559 39.14648406 0.33488047 39.23446464 -3.5 39.3125 C-4.57765625 39.35439453 -5.6553125 39.39628906 -6.765625 39.43945312 C-13.84772592 39.54741198 -18.57001267 38.71406782 -24 34 C-28.40105545 29.13567555 -29.72270094 23.44049429 -30 17 C-28.85780639 10.038058 -25.60948623 4.01147897 -20 -0.3125 C-13.33553822 -4.06125975 -6.52563823 -4.35042549 0 0 Z " fill="#F15C25" transform="translate(692,404)"/>
<path d="M0 0 C3.875 0.875 3.875 0.875 5 2 C5.09443335 4.30053835 5.11742128 6.60402173 5.11352539 8.90649414 C5.11367142 9.62840439 5.11381744 10.35031464 5.1139679 11.09410095 C5.11326869 13.49114947 5.10547595 15.88812123 5.09765625 18.28515625 C5.0957921 19.94282489 5.09436818 21.60049407 5.09336853 23.25816345 C5.08954312 27.62954214 5.07971265 32.00088781 5.06866455 36.37225342 C5.05845092 40.82954461 5.05387101 45.28684111 5.04882812 49.74414062 C5.0380904 58.49610893 5.02101371 67.24805036 5 76 C6.32 76.33 7.64 76.66 9 77 C7.35 77 5.7 77 4 77 C3.97494385 76.37432129 3.9498877 75.74864258 3.92407227 75.10400391 C3.80824727 72.27745381 3.68546015 69.45124831 3.5625 66.625 C3.52318359 65.64015625 3.48386719 64.6553125 3.44335938 63.640625 C3.40146484 62.69960938 3.35957031 61.75859375 3.31640625 60.7890625 C3.27974854 59.91975098 3.24309082 59.05043945 3.20532227 58.15478516 C3.12598456 55.9516738 3.12598456 55.9516738 2 54 C1.88619977 52.34645786 1.83328062 50.68854759 1.81054688 49.03125 C1.79382935 47.99677734 1.77711182 46.96230469 1.7598877 45.89648438 C1.74631226 44.77564453 1.73273682 43.65480469 1.71875 42.5 C1.70034058 41.35337891 1.68193115 40.20675781 1.66296387 39.02539062 C1.58408309 34.10296188 1.5164799 29.18039179 1.44775391 24.2578125 C1.39610553 20.67180446 1.33882322 17.08591699 1.28125 13.5 C1.26767456 12.37916016 1.25409912 11.25832031 1.2401123 10.10351562 C1.22339478 9.06904297 1.20667725 8.03457031 1.18945312 6.96875 C1.17692505 6.05544922 1.16439697 5.14214844 1.15148926 4.20117188 C1.1388658 1.95710898 1.1388658 1.95710898 0 0 Z " fill="#79608E" transform="translate(41,262)"/>
<path d="M0 0 C-2.297221 1.74271938 -4.59866729 3.39911152 -7 5 C-7.44872613 7.63785447 -7.44872613 7.63785447 -7.36076355 10.78323364 C-7.36488754 12.01444946 -7.36901154 13.24566528 -7.3732605 14.51419067 C-7.36264237 15.88592746 -7.35173794 17.25766206 -7.34057617 18.62939453 C-7.33973032 20.06809471 -7.34020422 21.50679618 -7.34190369 22.94549561 C-7.34276671 26.85858822 -7.32509156 30.77140664 -7.30418181 34.68443537 C-7.28546598 38.77104469 -7.28366861 42.85765985 -7.28010559 46.94430542 C-7.2707701 54.68623009 -7.24613607 62.42802813 -7.21605712 70.16989696 C-7.1825598 78.98233339 -7.16603887 87.79477577 -7.15097082 96.60725999 C-7.11958775 114.7382452 -7.06679814 132.86911243 -7 151 C-7.33 151 -7.66 151 -8 151 C-9.12935656 143.75496032 -9.15471579 136.61053654 -9.16113281 129.2878418 C-9.16576884 127.9122352 -9.17079454 126.53662987 -9.17617798 125.161026 C-9.1892162 121.44654118 -9.19572838 117.73207435 -9.20018864 114.01757026 C-9.20312931 111.69581663 -9.20723564 109.37406784 -9.21169281 107.05231667 C-9.22533629 99.78386767 -9.23502203 92.51542983 -9.2388947 85.24696892 C-9.24338774 76.86192338 -9.26100616 68.47703984 -9.2898953 60.09204358 C-9.31148043 53.60186449 -9.32159704 47.11173114 -9.32293582 40.62151653 C-9.32398482 36.74764651 -9.32991433 32.87392946 -9.34775543 29.00009727 C-9.36418457 25.36304249 -9.36641706 21.72625666 -9.35761642 18.08917809 C-9.35647457 16.11575752 -9.37022603 14.14234605 -9.3843689 12.16897583 C-9.37879974 10.99843155 -9.37323059 9.82788727 -9.36749268 8.62187195 C-9.36969252 7.09299363 -9.36969252 7.09299363 -9.3719368 5.53322887 C-9 3 -9 3 -7.67625046 1.16035175 C-5.16839927 -0.57565942 -2.96205527 -0.19747035 0 0 Z " fill="#73598A" transform="translate(236,257)"/>
<path d="M0 0 C0.33 0 0.66 0 1 0 C1.11355404 20.69478767 1.04544753 41.32460681 0 62 C-0.33 62 -0.66 62 -1 62 C-2.19388403 34.05485809 -2.19388403 34.05485809 -2 21 C-1.34 21 -0.68 21 0 21 C0 14.07 0 7.14 0 0 Z " fill="#7D6491" transform="translate(425,350)"/>
<path d="M0 0 C0.33 0 0.66 0 1 0 C1 5.61 1 11.22 1 17 C-3.95 17 -8.9 17 -14 17 C-12.68 16.01 -11.36 15.02 -10 14 C-8.948125 13.1646875 -8.948125 13.1646875 -7.875 12.3125 C-6 11 -6 11 -4 11 C-2.50859979 7.37802806 -1.2125738 3.72433382 0 0 Z " fill="#F8F5F4" transform="translate(699,426)"/>
<path d="M0 0 C0.33 0 0.66 0 1 0 C0.67 23.43 0.34 46.86 0 71 C-0.33 71 -0.66 71 -1 71 C-1.17683178 62.03824911 -1.3427961 53.07638286 -1.49477577 44.1141758 C-1.56568518 39.95294832 -1.64037816 35.79185962 -1.72363281 31.63085938 C-1.80379634 27.61746374 -1.87413245 23.60400657 -1.93757248 19.59031296 C-1.96355469 18.05680337 -1.9931157 16.52335021 -2.02626419 14.98997879 C-2.07198713 12.84703535 -2.10513601 10.70424662 -2.13525391 8.56103516 C-2.15746002 7.33969879 -2.17966614 6.11836243 -2.20254517 4.86001587 C-2 2 -2 2 0 0 Z " fill="#866E98" transform="translate(253,264)"/>
<path d="M0 0 C0 0.66 0 1.32 0 2 C-0.71285156 2.06316406 -1.42570313 2.12632812 -2.16015625 2.19140625 C-8.60989852 3.01607047 -12.28005295 4.28641574 -16.66015625 9.1484375 C-18.01808988 11.02499885 -19.03269597 12.89877498 -20 15 C-20.66 15 -21.32 15 -22 15 C-20.33522094 8.49222732 -16.57680081 4.59793601 -11 1 C-7.41978404 -0.35801295 -3.78633376 -0.07281411 0 0 Z " fill="#ED6636" transform="translate(686,401)"/>
<path d="M0 0 C5.75 -0.125 5.75 -0.125 8 1 C8 8.26 8 15.52 8 23 C7.67 23 7.34 23 7 23 C7 16.07 7 9.14 7 2 C5.35 2.33 3.7 2.66 2 3 C1.34 2.01 0.68 1.02 0 0 Z " fill="#5D3E76" transform="translate(12,370)"/>
<path d="M0 0 C1.05445312 -0.01417969 2.10890625 -0.02835937 3.1953125 -0.04296875 C5.875 0.1875 5.875 0.1875 7.875 2.1875 C1.935 2.5175 -4.005 2.8475 -10.125 3.1875 C-10.125 2.5275 -10.125 1.8675 -10.125 1.1875 C-6.71740374 0.15863639 -3.5507762 0.02181066 0 0 Z " fill="#694C81" transform="translate(80.125,355.8125)"/>
<path d="M0 0 C1.32 0.33 2.64 0.66 4 1 C1.03 3.97 -1.94 6.94 -5 10 C-5.66 9.67 -6.32 9.34 -7 9 C-5.4404735 5.17207132 -3.16368164 2.63640136 0 0 Z " fill="#5C3C76" transform="translate(151,325)"/>
<path d="M0 0 C-3.57448627 3.57448627 -8.32633447 3.93452653 -13.1953125 4.125 C-16.13294886 4.125 -19.06377798 4.08808666 -22 4 C-22 3.67 -22 3.34 -22 3 C-17.545 2.505 -17.545 2.505 -13 2 C-13 1.67 -13 1.34 -13 1 C-8.61414671 0.29826347 -4.44209357 -0.10834375 0 0 Z " fill="#7A608E" transform="translate(188,439)"/>
<path d="M0 0 C0.66 0.33 1.32 0.66 2 1 C-0.38179263 4.74281699 -2.74475735 7.97727468 -6 11 C-6.99 10.67 -7.98 10.34 -9 10 C-6.03 6.7 -3.06 3.4 0 0 Z " fill="#63447C" transform="translate(352,325)"/>
<path d="M0 0 C0 0.33 0 0.66 0 1 C-4.62 1 -9.24 1 -14 1 C-14 1.66 -14 2.32 -14 3 C-17.96 2.67 -21.92 2.34 -26 2 C-26 1.67 -26 1.34 -26 1 C-17.3387414 -0.25981943 -8.72998757 -0.09020653 0 0 Z " fill="#937FA3" transform="translate(78,336)"/>
<path d="M0 0 C0.79921875 0.02707031 1.5984375 0.05414063 2.421875 0.08203125 C3.02515625 0.11683594 3.6284375 0.15164063 4.25 0.1875 C2.47555028 2.43356427 1.66647515 3.13831002 -1.23046875 3.48046875 C-2.12378906 3.44566406 -3.01710938 3.41085937 -3.9375 3.375 C-4.83855469 3.34792969 -5.73960937 3.32085937 -6.66796875 3.29296875 C-7.69857422 3.24076172 -7.69857422 3.24076172 -8.75 3.1875 C-5.74754796 0.56379764 -3.97853212 -0.17552348 0 0 Z " fill="#735889" transform="translate(567.75,439.8125)"/>
<path d="M0 0 C1.19126781 3.57380342 0.7349445 5.50883302 0.0625 9.1875 C-0.13214844 10.27417969 -0.32679688 11.36085938 -0.52734375 12.48046875 C-0.68332031 13.31191406 -0.83929688 14.14335937 -1 15 C-3.30143236 11.54785147 -3.13833854 10.76520676 -2.625 6.8125 C-2.51414063 5.91144531 -2.40328125 5.01039063 -2.2890625 4.08203125 C-2.19367188 3.39496094 -2.09828125 2.70789063 -2 2 C-1.34 2 -0.68 2 0 2 C0 1.34 0 0.68 0 0 Z " fill="#6D5184" transform="translate(158,364)"/>
<path d="M0 0 C1 3 1 3 0.07421875 5.04296875 C-0.61220703 6.10451172 -0.61220703 6.10451172 -1.3125 7.1875 C-1.76238281 7.90292969 -2.21226562 8.61835938 -2.67578125 9.35546875 C-3.11277344 9.89816406 -3.54976562 10.44085938 -4 11 C-4.66 11 -5.32 11 -6 11 C-4.74194623 6.49197399 -3.09592835 3.5087188 0 0 Z " fill="#61427A" transform="translate(537,332)"/>
<path d="M0 0 C-2.297221 1.74271938 -4.59866729 3.39911152 -7 5 C-7.73343428 8.06556598 -7.73343428 8.06556598 -8 11 C-8.33 11 -8.66 11 -9 11 C-9.36180905 3.64321608 -9.36180905 3.64321608 -7.875 1 C-5.21065116 -0.42098605 -2.96508915 -0.19767261 0 0 Z " fill="#755B8B" transform="translate(236,257)"/>
<path d="M0 0 C1.75070517 0.11470137 3.50057536 0.24219028 5.25 0.375 C6.22453125 0.44460938 7.1990625 0.51421875 8.203125 0.5859375 C10.89633189 0.98465249 12.66963279 1.63507063 15 3 C13.35 3.33 11.7 3.66 10 4 C10 3.34 10 2.68 10 2 C8.02 2.33 6.04 2.66 4 3 C4 2.34 4 1.68 4 1 C2.68 0.67 1.36 0.34 0 0 Z " fill="#89729B" transform="translate(23,257)"/>
<path d="M0 0 C1.98 0 3.96 0 6 0 C6 0.66 6 1.32 6 2 C2.0186217 3.3271261 -1.85045227 3.06915913 -6 3 C-6 2.67 -6 2.34 -6 2 C-4.02 2 -2.04 2 0 2 C0 1.34 0 0.68 0 0 Z " fill="#79608E" transform="translate(260,440)"/>
<path d="M0 0 C2.76276177 0.52268466 5.3260876 1.10869587 8 2 C8 2.66 8 3.32 8 4 C8.99 4.33 9.98 4.66 11 5 C6.62886504 4.49172849 3.61004338 3.54826592 0 1 C0 0.67 0 0.34 0 0 Z " fill="#6D5184" transform="translate(243,437)"/>
<path d="M0 0 C8.03501094 -0.63019694 8.03501094 -0.63019694 12.0625 2 C12.701875 2.66 13.34125 3.32 14 4 C11.03 3.505 11.03 3.505 8 3 C8 2.34 8 1.68 8 1 C5.36 1 2.72 1 0 1 C0 0.67 0 0.34 0 0 Z " fill="#836C96" transform="translate(505,318)"/>
<path d="M0 0 C-2.26562673 2.26562673 -3.84160705 2.94462749 -7.04296875 3.09765625 C-7.75066406 3.08605469 -8.45835937 3.07445312 -9.1875 3.0625 C-11.0746875 3.0315625 -11.0746875 3.0315625 -13 3 C-13 2.67 -13 2.34 -13 2 C-8.46298506 0.54815522 -4.81938524 -0.23509196 0 0 Z " fill="#7A608F" transform="translate(380,440)"/>
<path d="M0 0 C-1.25125384 3.75376152 -2.5652404 4.24073289 -6 6 C-6.66 6 -7.32 6 -8 6 C-6.72879117 2.18637351 -4.19078006 0 0 0 Z " fill="#604179" transform="translate(331,434)"/>
<path d="M0 0 C1.88391785 3.26545761 2.49287967 6.28111761 3 10 C2.34 10 1.68 10 1 10 C-1.125 3.375 -1.125 3.375 0 0 Z " fill="#604079" transform="translate(357,402)"/>
<path d="M0 0 C3.63 0 7.26 0 11 0 C11 0.33 11 0.66 11 1 C7.04 1.66 3.08 2.32 -1 3 C-0.67 2.01 -0.34 1.02 0 0 Z " fill="#856E98" transform="translate(564,338)"/>
<path d="" fill="#DDDDDD" transform="translate(0,0)"/>
<path d="" fill="#DEDEDE" transform="translate(0,0)"/>
</svg>
