<?xml version="1.0" encoding="UTF-8"?>
<svg version="1.1" xmlns="http://www.w3.org/2000/svg" width="700" height="700">
<path d="M0 0 C50.82 0 101.64 0 154 0 C154.33 40.92 154.66 81.84 155 124 C156.98 118.06 156.98 118.06 159 112 C162.3 111.67 165.6 111.34 169 111 C169 74.37 169 37.74 169 0 C219.82 0 270.64 0 323 0 C323 36.96 323 73.92 323 112 C327.95 112 332.9 112 338 112 C338 75.04 338 38.08 338 0 C388.82 0 439.64 0 492 0 C492.33 45.87 492.66 91.74 493 139 C495.31 136.36 497.62 133.72 500 131 C501.6120647 129.28046432 503.26044941 127.59044626 505 126 C505.66 126 506.32 126 507 126 C507 84.42 507 42.84 507 0 C557.49 0 607.98 0 660 0 C660 71.28 660 142.56 660 216 C641.19 216 622.38 216 603 216 C601.68 221.28 600.36 226.56 599 232 C598.24091148 234.83496625 597.4700248 237.66686872 596.67578125 240.4921875 C596.48404831 241.17507843 596.29231537 241.85796936 596.09477234 242.56155396 C595.70029583 243.96436797 595.30471039 245.36687066 594.90795898 246.76904297 C594.29923185 248.92192539 593.69533223 251.07612573 593.09179688 253.23046875 C592.703404 254.60945361 592.31474296 255.98836298 591.92578125 257.3671875 C591.40624878 259.20966064 591.40624878 259.20966064 590.8762207 261.08935547 C590 264 590 264 589 266 C586.11328125 267 586.11328125 267 582.3125 268 C581.09175781 268.33 579.87101563 268.66 578.61328125 269 C565.51497818 271.99309467 552.6422757 272.40190261 539.26000977 272.42553711 C536.07165374 272.43746575 532.88521759 272.48682622 529.69726562 272.53710938 C509.89728874 272.69588996 493.88910011 268.37409945 479 254.5625 C469.01317547 243.64491349 464.78027371 230.50193527 465 216 C459.39 216 453.78 216 448 216 C447.72365723 217.59884033 447.44731445 219.19768066 447.16259766 220.8449707 C446.14025832 226.45998583 444.83713272 231.95952045 443.3984375 237.48046875 C443.18421143 238.3146936 442.96998535 239.14891846 442.74926758 240.00842285 C441.96207738 243.06920685 441.1681663 246.12825919 440.375 249.1875 C437.714375 259.4896875 437.714375 259.4896875 435 270 C419.49 270 403.98 270 388 270 C389.91169063 262.99046768 391.8437107 255.99906776 393.8828125 249.02734375 C394.14254852 248.13761368 394.40228455 247.24788361 394.66989136 246.33119202 C395.2121857 244.4749553 395.75500556 242.61887204 396.29833984 240.76293945 C397.13201018 237.91353991 397.96254319 235.06323728 398.79296875 232.21289062 C399.3227268 230.40098614 399.85266795 228.58913518 400.3828125 226.77734375 C400.6307254 225.92534897 400.87863831 225.07335419 401.13406372 224.19554138 C402.88553493 218.22893014 402.88553493 218.22893014 404 216 C399.38 216 394.76 216 390 216 C389.34 217.65 388.68 219.3 388 221 C387.29950225 222.22550882 386.56128191 223.43030845 385.78515625 224.609375 C385.35195068 225.27275879 384.91874512 225.93614258 384.47241211 226.61962891 C384.00714111 227.32265137 383.54187012 228.02567383 383.0625 228.75 C382.06494823 230.27333539 381.0675569 231.79677586 380.0703125 233.3203125 C379.30509277 234.48481934 379.30509277 234.48481934 378.52441406 235.67285156 C377.06662496 237.8982913 375.6204129 240.1306714 374.1796875 242.3671875 C373.71941162 243.08165039 373.25913574 243.79611328 372.78491211 244.53222656 C371.9337538 245.85422856 371.082957 247.17646343 370.23266602 248.49902344 C369.37522914 249.8269079 368.49763077 251.14190589 367.60449219 252.44604492 C366.28121545 254.5523745 365.19798829 256.6029665 364.10644531 258.8293457 C358.8205674 268.91982043 358.8205674 268.91982043 353.96127319 270.78076172 C348.27737716 271.86034712 342.6049874 271.37150724 336.875 270.9375 C335.13831049 270.86213973 333.40130523 270.79371902 331.6640625 270.73242188 C327.4348248 270.56819739 323.22093015 270.31031571 319 270 C317.91050733 266.35296461 317.70234119 262.77776599 317.46484375 258.98828125 C317.42177597 258.30645782 317.37870819 257.6246344 317.33433533 256.92214966 C317.19732508 254.71919264 317.06685782 252.51591873 316.9375 250.3125 C316.89264465 249.56855988 316.84778931 248.82461975 316.80157471 248.05813599 C316.16051701 237.35496375 315.79176674 226.72401282 316 216 C310.72 216 305.44 216 300 216 C299.76023437 217.34449219 299.52046875 218.68898438 299.2734375 220.07421875 C297.86199339 227.12275728 295.72778638 233.94585623 293.625 240.8125 C293.23395092 242.10208502 292.84332397 243.39179813 292.453125 244.68164062 C291.68555445 247.21569967 290.91290297 249.7480319 290.13769531 252.27978516 C289.37063163 254.78805048 288.60969271 257.29819598 287.85449219 259.81005859 C287.49774414 260.99035645 287.14099609 262.1706543 286.7734375 263.38671875 C286.45552246 264.44463623 286.13760742 265.50255371 285.81005859 266.5925293 C285 269 285 269 284 270 C281.1156618 270.08865208 278.25537842 270.11521296 275.37109375 270.09765625 C274.07474754 270.09553383 274.07474754 270.09553383 272.75221252 270.09336853 C269.98060708 270.08775239 267.2090812 270.07519719 264.4375 270.0625 C262.5631522 270.05748708 260.68880315 270.05292381 258.81445312 270.04882812 C254.20960456 270.03777772 249.60481579 270.0205023 245 270 C245.65948092 263.83366709 247.32515444 258.1658607 249.16015625 252.25390625 C249.5714679 250.90806458 249.5714679 250.90806458 249.99108887 249.53503418 C251.00920596 246.20911004 252.03638038 242.88596391 253.0625 239.5625 C255.351875 232.116875 257.64125 224.67125 260 217 C230.3 216.67 200.6 216.34 170 216 C168.68 221.28 167.36 226.56 166 232 C165.10726598 235.13773956 164.20457949 238.2538765 163.23828125 241.3671875 C163.00215622 242.13886261 162.76603119 242.91053772 162.52275085 243.70559692 C162.03493117 245.29700355 161.54518994 246.8878225 161.0534668 248.47802734 C160.29854702 250.92013685 159.55021248 253.36419729 158.80273438 255.80859375 C158.3232885 257.3699059 157.84348494 258.93110826 157.36328125 260.4921875 C157.14037918 261.21912811 156.91747711 261.94606873 156.68782043 262.69503784 C155.11656279 267.76687442 155.11656279 267.76687442 154 270 C140.14 270 126.28 270 112 270 C112.62775311 265.60572824 113.13610588 262.08888088 114.39868164 257.98266602 C114.68279907 257.04958618 114.9669165 256.11650635 115.25964355 255.15515137 C115.55681274 254.19774048 115.85398193 253.24032959 116.16015625 252.25390625 C116.5714679 250.90806458 116.5714679 250.90806458 116.99108887 249.53503418 C118.00920596 246.20911004 119.03638038 242.88596391 120.0625 239.5625 C122.351875 232.116875 124.64125 224.67125 127 217 C111.16 216.67 95.32 216.34 79 216 C80.7325 219.58875 82.465 223.1775 84.25 226.875 C88.80380268 236.3413322 93.28171925 245.83899804 97.6875 255.375 C98.2040918 256.49116699 98.72068359 257.60733398 99.25292969 258.75732422 C99.73020508 259.7938916 100.20748047 260.83045898 100.69921875 261.8984375 C101.12033936 262.81286621 101.54145996 263.72729492 101.9753418 264.66943359 C103 267 103 267 104 270 C87.83 270 71.66 270 55 270 C52.3264258 264.6528516 49.86820896 259.44827909 47.6875 253.9140625 C47.39190186 253.17223724 47.09630371 252.43041199 46.79174805 251.66610718 C45.8578768 249.32036292 44.92883103 246.97274391 44 244.625 C43.37792849 243.0597669 42.75553502 241.49466171 42.1328125 239.9296875 C40.94618485 236.946322 39.7612766 233.96228476 38.578125 230.97753906 C36.72908794 226.31420773 34.86631024 221.65644405 33 217 C29.04 217 25.08 217 21 217 C19.0420326 223.42269752 17.08486229 229.84563719 15.12841797 236.26879883 C14.46327051 238.45213322 13.79790842 240.63540223 13.13232422 242.81860352 C12.1735835 245.96353103 11.21562456 249.10869579 10.2578125 252.25390625 C9.96190216 253.2239711 9.66599182 254.19403595 9.3611145 255.1934967 C9.08097504 256.11392258 8.80083557 257.03434845 8.51220703 257.98266602 C8.26793976 258.78430679 8.02367249 259.58594757 7.77200317 260.41188049 C6.82102813 263.59999829 5.91397736 266.80107925 5 270 C-9.85 270 -24.7 270 -40 270 C-38.87509397 262.12565779 -38.87509397 262.12565779 -37.8269043 258.67871094 C-37.47226357 257.49858429 -37.47226357 257.49858429 -37.11045837 256.2946167 C-36.8509993 255.44973694 -36.59154022 254.60485718 -36.32421875 253.734375 C-36.04683365 252.81585754 -35.76944855 251.89734009 -35.48365784 250.95098877 C-34.87637634 248.94207639 -34.26677789 246.9338633 -33.65515137 244.92626953 C-32.32455759 240.55865882 -31.00499831 236.18773702 -29.68466187 231.8170166 C-28.96504044 229.43525158 -28.2448293 227.05366467 -27.52407837 224.67224121 C-22.94689131 209.54166737 -18.43516678 194.3915474 -13.9187355 179.24275208 C-12.19260674 173.45379837 -10.46510559 167.66525396 -8.73783684 161.87664032 C-8.16044079 159.94141543 -7.58321571 158.00613953 -7.0059967 156.07086182 C-6.65371506 154.88989929 -6.30143341 153.70893677 -5.93847656 152.4921875 C-5.63508362 151.47495605 -5.33169067 150.45772461 -5.019104 149.40966797 C-4.46150906 147.54409427 -3.88579112 145.68229425 -3.22710705 143.84996986 C-0.7702613 136.65656965 -0.55892257 129.93810099 -0.56762695 122.38037109 C-0.55850401 121.0174706 -0.54808693 119.65457827 -0.53649426 118.29169655 C-0.50921326 114.67064252 -0.49944205 111.04974776 -0.49352264 107.42860413 C-0.48523235 104.01978314 -0.46085102 100.61114744 -0.43786621 97.20239258 C-0.3800633 87.26000859 -0.34781379 77.3174893 -0.3125 67.375 C-0.209375 45.14125 -0.10625 22.9075 0 0 Z M508 216 C509.22112861 226.88475246 509.22112861 226.88475246 515 235 C522.2795433 239.71795451 528.89768218 240.18169362 537.375 240.1875 C538.30828125 240.19974609 539.2415625 240.21199219 540.203125 240.22460938 C547.43223399 240.43075452 547.43223399 240.43075452 554 238 C555.62357588 234.79302803 556.49223455 231.47317555 557.375 228 C557.63410156 227.071875 557.89320313 226.14375 558.16015625 225.1875 C559.50081824 220.65716696 559.50081824 220.65716696 560 216 C542.84 216 525.68 216 508 216 Z " fill="#005099" transform="translate(40,214)"/>
<path d="M0 0 C15.84 0 31.68 0 48 0 C50.38267231 26.40795142 51.28999573 52.4554549 51.25 78.9375 C51.24892488 80.50604247 51.24786684 82.07458495 51.24682617 83.64312744 C51.24283428 87.41405359 51.23127778 91.18488595 51.21320343 94.95577049 C51.20659704 96.35465166 51.20115857 97.75353895 51.19701385 99.15242958 C51.16849477 107.15603641 50.89456756 115.04365109 50 123 C50.31710937 122.16082031 50.63421875 121.32164062 50.9609375 120.45703125 C58.61733035 100.72384194 68.3395774 82.26063865 79 64 C79.72243896 62.75017334 79.72243896 62.75017334 80.45947266 61.47509766 C86.61254714 50.84900555 93.1940531 40.52924203 100 30.3125 C100.71115967 29.24483398 101.42231934 28.17716797 102.1550293 27.07714844 C103.61462812 24.90286316 105.10134966 22.74658165 106.61230469 20.60766602 C108.43368239 17.97290965 109.91271258 15.27560473 111.36425781 12.42163086 C117.46745957 1.18707013 117.46745957 1.18707013 123.58325195 -0.86807251 C130.96156882 -2.1083768 138.32418006 -1.55201301 145.75 -1.0625 C148.0075268 -0.97710547 150.26536492 -0.8995598 152.5234375 -0.83007812 C158.02248445 -0.64389556 163.50977852 -0.36063672 169 0 C166.08219773 15.84443871 162.22745495 31.40039556 158.20390701 46.99546814 C156.78124529 52.51779972 155.37190088 58.04356069 153.95978355 63.56859589 C153.41224122 65.71024872 152.8640747 67.85174116 152.31587219 69.9932251 C149.72851516 80.10744343 147.1769869 90.23030226 144.6484375 100.359375 C144.47440966 101.05646072 144.30038181 101.75354645 144.1210804 102.47175598 C142.6025628 108.55622682 141.08693863 114.64141681 139.5730896 120.72705078 C138.94580977 123.24833602 138.31812432 125.76952039 137.68997192 128.29058838 C137.12278736 130.56713349 136.5566265 132.84393398 135.9916687 135.12103271 C135.74248688 136.12104309 135.49330505 137.12105347 135.23657227 138.15136719 C135.02057877 139.020578 134.80458527 139.88978882 134.58204651 140.78533936 C134.12033411 142.54213416 133.57441329 144.27676012 133 146 C121.78 146 110.56 146 99 146 C102.35573123 132.5770751 102.35573123 132.5770751 104.25 126.6875 C104.68309249 125.32447295 105.11533024 123.96117412 105.546875 122.59765625 C105.89395508 121.50348389 105.89395508 121.50348389 106.24804688 120.38720703 C110.09097306 108.18716409 113.78860905 95.9482166 117.16503906 83.61083984 C119.96341419 73.42321732 123.08187467 63.32997713 126.14550781 53.21972656 C127.18392619 49.79145538 128.21938876 46.36229984 129.25354004 42.93273926 C129.66676569 41.5644924 130.08106692 40.1965699 130.49645996 38.82897949 C131.08085517 36.90496884 131.6615987 34.97985019 132.2421875 33.0546875 C132.5810498 31.93562012 132.91991211 30.81655273 133.26904297 29.66357422 C134.08821428 27.138893 134.08821428 27.138893 134 25 C133.70456299 25.47083008 133.40912598 25.94166016 133.10473633 26.42675781 C125.68679553 38.23740593 118.15266637 49.96646958 110.53320312 61.64794922 C103.67573404 72.16783093 96.88765762 82.73146564 90.125 93.3125 C83.64147632 103.45600337 77.10272085 113.56191605 70.53027344 123.64794922 C67.48475576 128.3289507 64.45493351 133.02012271 61.42456055 137.7109375 C59.63177108 140.48475176 57.83206957 143.25189565 56 146 C53.11083984 146.34057617 53.11083984 146.34057617 49.4609375 146.29296875 C47.50800781 146.2784668 47.50800781 146.2784668 45.515625 146.26367188 C44.13541077 146.23860388 42.75520244 146.21320902 41.375 146.1875 C39.98699337 146.17245517 38.59897133 146.15876641 37.2109375 146.14648438 C33.80690491 146.1110257 30.40364378 146.06160298 27 146 C26.5318453 138.53345063 26.064097 131.06687586 25.59677887 123.60027409 C25.36940096 119.96747388 25.14190799 116.33468095 24.91415405 112.7019043 C23.96175802 97.50918258 23.01366563 82.31629894 22.1015625 67.12109375 C21.99933128 65.42413109 21.99933128 65.42413109 21.89503479 63.69288635 C21.57761201 58.4231173 21.26254881 53.15322961 20.9519043 47.88305664 C20.83914478 46.00536419 20.72627702 44.12767824 20.61328125 42.25 C20.56551544 41.42257797 20.51774963 40.59515594 20.46853638 39.74266052 C20.16742832 34.79344967 19.66301593 29.91424181 19 25 C18.80889648 25.69448242 18.61779297 26.38896484 18.42089844 27.10449219 C17.53388631 30.32057827 16.64196529 33.53528429 15.75 36.75 C15.44964844 37.84183594 15.14929688 38.93367188 14.83984375 40.05859375 C13.05277885 46.48442286 11.08537507 52.80891208 8.94189453 59.12402344 C7.46974932 63.61906505 6.26309924 68.1762886 5.0625 72.75 C3.03601842 80.46333161 0.75800379 88.07786543 -1.6418457 95.68164062 C-3.04899966 100.14222627 -4.4224656 104.61278216 -5.7890625 109.0859375 C-6.02204544 109.84837769 -6.25502838 110.61081787 -6.49507141 111.3963623 C-6.96762237 112.94370369 -7.43996792 114.49110783 -7.91210938 116.03857422 C-8.6309156 118.39438778 -9.35055574 120.74994544 -10.0703125 123.10546875 C-10.53911069 124.64061028 -11.00786236 126.17576603 -11.4765625 127.7109375 C-11.68600494 128.39658783 -11.89544739 129.08223816 -12.11123657 129.78866577 C-13.75801213 135.18748312 -15.37804318 140.59347728 -17 146 C-25.91 146 -34.82 146 -44 146 C-43.26120338 140.82842366 -42.39455771 136.54926914 -40.890625 131.625 C-40.68193787 130.93801025 -40.47325073 130.25102051 -40.25823975 129.54321289 C-39.81683461 128.09366125 -39.37296668 126.64485749 -38.92675781 125.19677734 C-38.26082893 123.03515105 -37.60236993 120.87136854 -36.9453125 118.70703125 C-34.83073486 111.77142061 -32.64494096 104.86690039 -30.328125 97.99609375 C-28.55304429 92.71895869 -26.92213521 87.44412843 -25.5 82.0625 C-23.21181932 73.63631309 -20.65376382 65.3170924 -18 57 C-17.06054622 54.04228408 -16.12366921 51.08375701 -15.1875 48.125 C-14.94281982 47.35285156 -14.69813965 46.58070313 -14.44604492 45.78515625 C-11.87561336 37.65102354 -9.37790539 29.49459606 -6.89135742 21.33447266 C-6.57400635 20.29726074 -6.25665527 19.26004883 -5.9296875 18.19140625 C-5.65366699 17.28592041 -5.37764648 16.38043457 -5.09326172 15.44750977 C-3.45434192 10.27931268 -1.71453548 5.14360645 0 0 Z " fill="#FBFCFD" transform="translate(337,332)"/>
<path d="M0 0 C8.06819895 -0.07014396 16.13626617 -0.12313265 24.20469666 -0.15543652 C27.95298184 -0.17095673 31.70105534 -0.19193817 35.44921875 -0.22631836 C39.08027157 -0.2594081 42.71112348 -0.27695492 46.34231567 -0.28463173 C48.37142577 -0.29270583 50.40045735 -0.31604109 52.42944336 -0.33988953 C66.58969195 -0.34239602 81.67373603 0.9407762 92.875 10.4375 C99.0904653 17.93261992 100.18026176 22.85476761 100.1875 32.25 C100.19974609 33.07113281 100.21199219 33.89226562 100.22460938 34.73828125 C100.25707546 48.39567979 95.34929856 60.09976063 86 70 C79.58489527 76.13565888 72.14639542 79.64740565 64 83 C63.25105469 83.3196875 62.50210938 83.639375 61.73046875 83.96875 C48.97493491 88.84658321 33.97905634 88.35491246 20.5 88.625 C18.8867011 88.66332681 17.27341944 88.70238606 15.66015625 88.7421875 C11.77358313 88.83652328 7.88691598 88.92110715 4 89 C0.58800043 100.1825927 -2.81985388 111.36645683 -6.1875 122.5625 C-6.41260254 123.30854492 -6.63770508 124.05458984 -6.86962891 124.82324219 C-8.98306174 131.8639314 -10.97985338 138.92948682 -13 146 C-22.9 146 -32.8 146 -43 146 C-41.8764275 138.13499252 -41.8764275 138.13499252 -40.546875 134.13671875 C-40.11652954 132.82054565 -40.11652954 132.82054565 -39.67749023 131.4777832 C-39.37141846 130.55698975 -39.06534668 129.63619629 -38.75 128.6875 C-36.28650158 121.1260245 -33.98564839 113.55587956 -31.91604614 105.87799072 C-30.49854311 100.67581132 -28.93298993 95.53824929 -27.28125 90.40625 C-23.39885941 78.22394181 -19.79838772 65.95924564 -16.17993164 53.6965332 C-12.71105301 41.95002013 -9.18023592 30.23248342 -5.39332581 18.58390808 C-3.40715401 12.43644888 -1.6535815 6.2449242 0 0 Z " fill="#FCFDFE" transform="translate(203,332)"/>
<path d="M0 0 C1.18980469 -0.01611328 2.37960937 -0.03222656 3.60546875 -0.04882812 C14.35575565 -0.0547026 23.91923754 1.7519557 33.5 6.6875 C34.62148438 7.25210937 35.74296875 7.81671875 36.8984375 8.3984375 C46.13859264 13.87988546 51.92794692 21.40436841 54.66015625 31.83203125 C55.95809226 38.7579923 55.08874362 43.43939732 53.125 50.3125 C43.225 50.3125 33.325 50.3125 23.125 50.3125 C23.455 48.3325 23.785 46.3525 24.125 44.3125 C24.47297387 39.48770839 24.72167825 34.96213987 23.0625 30.375 C17.44312929 24.39308924 9.74250249 22.38942593 1.7578125 21.9765625 C-12.25082389 21.69731038 -21.37071029 24.53811939 -31.83203125 34.1015625 C-42.97101653 45.48222202 -48.63158983 61.27314713 -52.875 76.3125 C-53.2153125 77.50488281 -53.555625 78.69726562 -53.90625 79.92578125 C-56.97193532 92.23110151 -58.22704421 106.14880023 -52.48828125 117.8203125 C-48.20159382 124.44236233 -42.5618467 128.41740483 -34.875 130.3125 C-30.8861473 130.7018551 -26.94200804 130.68722045 -22.9375 130.625 C-21.90431641 130.62822266 -20.87113281 130.63144531 -19.80664062 130.63476562 C-16.8195531 130.61395628 -13.85744984 130.47092823 -10.875 130.3125 C-10.03437012 130.3439209 -9.19374023 130.3753418 -8.32763672 130.40771484 C-5.49778631 130.26844472 -4.17692192 129.99812773 -1.875 128.3125 C0.90659031 123.22052641 2.4856023 117.85686018 4.125 112.3125 C4.60197299 110.79577124 5.08240723 109.28012634 5.56640625 107.765625 C6.4476637 104.99832913 7.30644847 102.22596658 8.14453125 99.4453125 C9.125 96.3125 9.125 96.3125 10.125 94.3125 C-0.765 94.3125 -11.655 94.3125 -22.875 94.3125 C-21.905625 91.05375 -20.93625 87.795 -19.9375 84.4375 C-19.63336182 83.41156738 -19.32922363 82.38563477 -19.01586914 81.32861328 C-18.77473389 80.52149902 -18.53359863 79.71438477 -18.28515625 78.8828125 C-18.03902588 78.05539551 -17.79289551 77.22797852 -17.53930664 76.37548828 C-16.875 74.3125 -16.875 74.3125 -15.875 72.3125 C4.585 72.3125 25.045 72.3125 46.125 72.3125 C45.135 75.9425 44.145 79.5725 43.125 83.3125 C42.53919511 85.49933942 41.95560554 87.68677441 41.375 89.875 C31.27668385 127.78252523 31.27668385 127.78252523 28.92578125 135.58984375 C28.10083342 138.25825563 28.10083342 138.25825563 27.60546875 140.81640625 C27.0625 143 27.0625 143 25.125 146.3125 C21.58255817 148.03365106 17.99032873 148.66746411 14.125 149.3125 C13.15691406 149.50328125 12.18882812 149.6940625 11.19140625 149.890625 C-1.19617454 152.19376087 -13.74279117 152.53198291 -26.3125 152.625 C-27.61509766 152.65400391 -28.91769531 152.68300781 -30.25976562 152.71289062 C-47.5389151 152.82470195 -63.3171987 147.36376813 -75.875 135.3125 C-87.36948491 121.88395261 -88.77817234 107.28591124 -87.875 90.3125 C-84.91365063 63.11698885 -69.90963803 32.27253053 -48.8046875 14.765625 C-33.88985326 3.84518126 -18.2830189 -0.0492008 0 0 Z " fill="#FCFCFD" transform="translate(598.875,328.6875)"/>
<path d="M0 0 C0 0.66 0 1.32 0 2 C-1.48413086 3.47827148 -1.48413086 3.47827148 -3.52734375 5.18359375 C-7.6562678 8.69558343 -11.6223512 12.341276 -15.5625 16.0625 C-16.96860382 17.38557203 -18.37485732 18.70848502 -19.78125 20.03125 C-20.83699219 21.02511719 -20.83699219 21.02511719 -21.9140625 22.0390625 C-25.12245566 25.0551924 -28.34195985 28.05935162 -31.5625 31.0625 C-32.48397827 31.92210327 -32.48397827 31.92210327 -33.42407227 32.79907227 C-34.66302869 33.95481398 -35.9020422 35.1104945 -37.14111328 36.26611328 C-39.00975697 38.00910087 -40.87800479 39.75251163 -42.74609375 41.49609375 C-43.36653564 42.07504395 -43.98697754 42.65399414 -44.6262207 43.25048828 C-45.86629268 44.40831965 -47.1057233 45.56683835 -48.34448242 46.72607422 C-51.62811482 49.79703501 -54.92518386 52.85180411 -58.2421875 55.88671875 C-59.27956055 56.84094727 -59.27956055 56.84094727 -60.33789062 57.81445312 C-61.66834958 59.03776103 -63.00282463 60.25671935 -64.34179688 61.47070312 C-64.93798828 62.02048828 -65.53417969 62.57027344 -66.1484375 63.13671875 C-66.67614746 63.61842529 -67.20385742 64.10013184 -67.74755859 64.59643555 C-69.25176198 66.09581604 -69.25176198 66.09581604 -70 69 C-69.01147767 71.52512495 -67.95543415 73.88025012 -66.7578125 76.3046875 C-66.40253479 77.0443576 -66.04725708 77.78402771 -65.68121338 78.54611206 C-64.90876772 80.15203411 -64.13192748 81.755848 -63.35125732 83.35778809 C-61.27136902 87.62729947 -59.22445791 91.91262653 -57.171875 96.1953125 C-56.74711884 97.07912598 -56.32236267 97.96293945 -55.88473511 98.87353516 C-51.67573755 107.64195817 -47.56998292 116.45666958 -43.50579834 125.29302979 C-42.75223263 126.93035842 -41.99690275 128.56687627 -41.23980713 130.20257568 C-40.18467574 132.48226245 -39.13452405 134.76417187 -38.0859375 137.046875 C-37.77118469 137.72531464 -37.45643188 138.40375427 -37.13214111 139.10275269 C-35 143.77061605 -35 143.77061605 -35 146 C-46.55 146 -58.1 146 -70 146 C-75.62654947 133.62159117 -75.62654947 133.62159117 -78.03027344 127.66430664 C-78.29274368 127.01563629 -78.55521393 126.36696594 -78.82563782 125.69863892 C-79.67264258 123.60344768 -80.51616151 121.50687583 -81.359375 119.41015625 C-81.95504361 117.93324888 -82.55085104 116.45639749 -83.14678955 114.979599 C-84.38542408 111.90850696 -85.62230015 108.8367144 -86.85791016 105.7644043 C-88.44037851 101.83009411 -90.02745472 97.89766144 -91.61584091 93.96573734 C-92.84276963 90.92705242 -94.06720886 87.88736919 -95.29090118 84.84737968 C-95.87540654 83.3962085 -96.46070074 81.94535479 -97.04680634 80.49482918 C-97.86285129 78.47421005 -98.67551428 76.45226311 -99.48730469 74.42993164 C-99.94965515 73.28174454 -100.41200562 72.13355743 -100.8883667 70.95057678 C-102.7704106 65.95512097 -102.7704106 65.95512097 -103 64 C-101.28820007 61.85204811 -99.64311824 60.08563174 -97.6640625 58.2109375 C-97.1101181 57.66643951 -96.55617371 57.12194153 -95.98544312 56.5609436 C-94.21001185 54.82016739 -92.41834325 53.09730075 -90.625 51.375 C-88.84233064 49.64224922 -87.06314468 47.90602846 -85.28598022 46.16763306 C-84.17813358 45.08624065 -83.06643109 44.00878192 -81.95059204 42.93563843 C-79.11113235 40.24928265 -79.11113235 40.24928265 -77 37 C-76.34 37 -75.68 37 -75 37 C-74.72407013 36.41184509 -74.44814026 35.82369019 -74.16384888 35.2177124 C-57.95064964 4.32348401 -32.65656995 -5.43220958 0 0 Z " fill="#FBFCFD" transform="translate(169,332)"/>
<path d="M0 0 C10.89 0 21.78 0 33 0 C29.63009765 13.47960942 29.63009765 13.47960942 27.9140625 18.8828125 C27.3576709 20.64987549 27.3576709 20.64987549 26.79003906 22.45263672 C26.21334473 24.27045654 26.21334473 24.27045654 25.625 26.125 C22.81505555 35.04891763 20.10740978 43.98389982 17.67236328 53.01806641 C16.09112887 58.82598292 14.18326835 64.49884872 12.23828125 70.1953125 C10.89889174 74.21452497 9.78853099 78.28519601 8.6875 82.375 C6.39394936 90.86475436 3.73248888 99.21828152 1.0234375 107.58349609 C-1.42262847 115.1498545 -3.7647086 122.74021992 -6.00952148 130.36865234 C-7.56254642 135.62810873 -9.26303575 140.78910724 -11 146 C-21.56 146 -32.12 146 -43 146 C-40.75223997 133.63731983 -40.75223997 133.63731983 -39.40625 129.43359375 C-39.10323975 128.47098633 -38.80022949 127.50837891 -38.48803711 126.51660156 C-38.16198486 125.50049805 -37.83593262 124.48439453 -37.5 123.4375 C-34.1875957 112.90875879 -31.0256518 102.34615567 -27.9375 91.75 C-24.87041627 81.23896216 -21.70380063 70.77432796 -18.33178711 60.35620117 C-16.36493401 54.24601597 -14.59653932 48.10175544 -12.91503906 41.90771484 C-11.196797 35.61356711 -9.33646707 29.36684414 -7.4375 23.125 C-7.15648437 22.19824463 -6.87546875 21.27148926 -6.5859375 20.31665039 C-4.50154941 13.50058014 -2.25569202 6.76707605 0 0 Z " fill="#FCFDFD" transform="translate(51,332)"/>
<path d="M0 0 C4.80137245 -0.09978872 9.60212521 -0.17189617 14.40429688 -0.21972656 C16.03363578 -0.23969079 17.66290445 -0.2668723 19.29199219 -0.30175781 C39.1737726 -0.7164698 39.1737726 -0.7164698 47.625 6.125 C50.4061226 11.94007454 49.7998714 16.97447439 47.70703125 22.9609375 C44.31305929 31.73430405 40.64838713 38.68206669 31.92578125 43.03515625 C25.57074839 45.63769352 19.24474185 46.12497897 12.4140625 46.09765625 C11.71227875 46.0962413 11.010495 46.09482635 10.28744507 46.09336853 C8.06658496 46.0878129 5.84582916 46.07526892 3.625 46.0625 C2.11067855 46.05747926 0.5963555 46.05291736 -0.91796875 46.04882812 C-4.61201252 46.03785807 -8.30599606 46.02062449 -12 46 C-11.40528099 40.05872747 -10.19948902 34.6209792 -8.49609375 28.90625 C-8.2533522 28.07411987 -8.01061066 27.24198975 -7.76051331 26.38464355 C-6.99191278 23.75470725 -6.2148607 21.12735866 -5.4375 18.5 C-4.91154642 16.7058941 -4.3861503 14.91162469 -3.86132812 13.1171875 C-2.58065464 8.74287511 -1.29240091 4.37086116 0 0 Z " fill="#03519A" transform="translate(225,353)"/>
<path d="M0 0 C1.35304209 4.05912626 0.15216503 5.77149591 -1.4375 9.6875 C-1.91058594 10.86699219 -2.38367188 12.04648437 -2.87109375 13.26171875 C-3.24363281 14.16535156 -3.61617188 15.06898438 -4 16 C-4.99 16 -5.98 16 -7 16 C-7.66 15.34 -8.32 14.68 -9 14 C-6.03 9.38 -3.06 4.76 0 0 Z " fill="#15519A" transform="translate(472,354)"/>
<path d="M0 0 C0.33 0 0.66 0 1 0 C2.70159453 14.78132118 2.70159453 14.78132118 -1 21 C-1.99443769 18.01668694 -2.02452065 16.79161241 -1.66015625 13.76953125 C-1.56669922 12.96708984 -1.47324219 12.16464844 -1.37695312 11.33789062 C-1.27318359 10.50451172 -1.16941406 9.67113281 -1.0625 8.8125 C-0.96259766 7.96751953 -0.86269531 7.12253906 -0.75976562 6.25195312 C-0.51242892 4.16725803 -0.25698959 2.08352716 0 0 Z " fill="#1A529A" transform="translate(388,435)"/>
<path d="M0 0 C0.66 0.33 1.32 0.66 2 1 C0.02 3.31 -1.96 5.62 -4 8 C-4.66 7.34 -5.32 6.68 -6 6 C-4.02 4.02 -2.04 2.04 0 0 Z " fill="#12519A" transform="translate(109,388)"/>
</svg>
