<?xml version="1.0" encoding="UTF-8"?>
<svg version="1.1" xmlns="http://www.w3.org/2000/svg" width="700" height="700">
<path d="M0 0 C0.495 8.91 0.495 8.91 1 18 C2.09957031 17.33613281 3.19914062 16.67226563 4.33203125 15.98828125 C22.0403874 5.37210266 39.99726359 -3.74496271 61.26953125 1.125 C76.27470415 5.93352465 87.99538498 15.43519004 96 29 C102.42916113 42.35399455 105.58204933 55.77614836 105.5 70.625 C105.49427979 71.84195557 105.48855957 73.05891113 105.48266602 74.31274414 C105.05020559 96.37405035 97.3882777 113.90855646 82.140625 129.95703125 C65.72856377 145.49237981 43.67389356 150.38568534 21.80859375 150.20581055 C19.47645346 150.18731324 17.14470674 150.18530312 14.8125 150.18554688 C13.32291323 150.18063876 11.83332913 150.17481356 10.34375 150.16796875 C9.65003296 150.16685593 8.95631592 150.1657431 8.24157715 150.16459656 C5.21924896 150.13470078 2.89157793 149.96385931 0 149 C0 164.18 0 179.36 0 195 C6.6 196.32 13.2 197.64 20 199 C21.32 199.33 22.64 199.66 24 200 C24 204.62 24 209.24 24 214 C-7.35 214 -38.7 214 -71 214 C-71 209.38 -71 204.76 -71 200 C-69.56785156 199.65066406 -68.13570313 199.30132812 -66.66015625 198.94140625 C-64.79422525 198.4819559 -62.9283423 198.02231042 -61.0625 197.5625 C-59.64420898 197.21735352 -59.64420898 197.21735352 -58.19726562 196.86523438 C-57.29814453 196.64287109 -56.39902344 196.42050781 -55.47265625 196.19140625 C-54.64000244 195.98717041 -53.80734863 195.78293457 -52.94946289 195.57250977 C-51.01329716 195.17303358 -51.01329716 195.17303358 -50 194 C-49.90316419 191.92439194 -49.87813098 189.84542796 -49.87974548 187.76756287 C-49.87846385 186.78010333 -49.87846385 186.78010333 -49.87715632 185.77269512 C-49.8754997 183.55082894 -49.88102582 181.32903705 -49.88647461 179.10717773 C-49.88675647 177.52084352 -49.88659877 175.93450918 -49.8860321 174.34817505 C-49.88574408 170.02811278 -49.89164163 165.70807803 -49.89860606 161.38802218 C-49.90483875 156.87831685 -49.90544333 152.36861095 -49.90663147 147.85890198 C-49.90974504 139.31305626 -49.91795876 130.76722326 -49.92798096 122.22138315 C-49.93914131 112.49482367 -49.94465235 102.76826358 -49.94967639 93.04169929 C-49.96014136 73.02779222 -49.97794168 53.01389736 -50 33 C-61.385 32.505 -61.385 32.505 -73 32 C-73 27.05 -73 22.1 -73 17 C-64.75852325 14.30525398 -56.51153772 11.63027211 -48.24983215 8.99816895 C-44.98440634 7.95738617 -41.72249548 6.90885336 -38.46630859 5.83935547 C-25.11843751 1.45854671 -14.09139983 -0.82199832 0 0 Z M0 34 C0 66.01 0 98.02 0 131 C15.39530137 131 27.63959371 130.45402892 39.21875 119.99609375 C50.78103309 107.93766792 53.41257617 91.66723072 53.15234375 75.50390625 C52.4311343 63.65018164 50.72470446 49.88050276 42 41 C29.60820335 30.5997421 15.23673959 30.1908151 0 34 Z " fill="#000000" transform="translate(73,305)"/>
<path d="M0 0 C0.52851563 0.36996094 1.05703125 0.73992187 1.6015625 1.12109375 C2.4884375 1.67796875 3.3753125 2.23484375 4.2890625 2.80859375 C9.68236809 8.20189934 12.76056305 14.96934366 12.9765625 22.49609375 C12.76302152 43.42310957 -5.29843028 60.80987166 -17.79589844 76.32348633 C-21.42757452 80.85266554 -24.93620949 85.46146715 -28.3984375 90.12109375 C-32.28235305 95.34805732 -36.24585104 100.49125967 -40.3359375 105.55859375 C-44.00000325 110.09832937 -47.62057062 114.66352128 -51.14746094 119.31103516 C-52.23656702 120.73276012 -53.34300609 122.14136407 -54.46582031 123.53662109 C-57.44853981 127.28865873 -59.83018117 130.84621387 -61.85546875 135.19921875 C-64.5859375 140.18359375 -64.5859375 140.18359375 -73.3984375 148.12109375 C-87.2584375 148.12109375 -101.1184375 148.12109375 -115.3984375 148.12109375 C-115.7284375 119.41109375 -116.0584375 90.70109375 -116.3984375 61.12109375 C-123.77495508 73.03700677 -131.12601539 84.93970712 -138.30859375 96.96875 C-140.45004737 100.54655285 -142.60446164 104.116125 -144.76953125 107.6796875 C-145.34195557 108.62529541 -145.91437988 109.57090332 -146.50415039 110.54516602 C-147.68452853 112.47217771 -148.88306634 114.38818172 -150.09936523 116.29272461 C-153.85659286 122.23634163 -156.75937734 128.02248463 -159.11572266 134.65673828 C-160.8984375 138.05859375 -160.8984375 138.05859375 -169.3984375 148.12109375 C-181.9384375 148.12109375 -194.4784375 148.12109375 -207.3984375 148.12109375 C-207.3984375 109.18109375 -207.3984375 70.24109375 -207.3984375 30.12109375 C-210.3684375 30.12109375 -213.3384375 30.12109375 -216.3984375 30.12109375 C-218.15218535 30.00842238 -219.90476345 29.86876782 -221.65234375 29.68359375 C-222.52568359 29.59335937 -223.39902344 29.503125 -224.29882812 29.41015625 C-225.17732422 29.31476563 -226.05582031 29.219375 -226.9609375 29.12109375 C-227.87423828 29.02570313 -228.78753906 28.9303125 -229.72851562 28.83203125 C-231.95225888 28.59917855 -234.17541467 28.36072663 -236.3984375 28.12109375 C-236.3984375 23.17109375 -236.3984375 18.22109375 -236.3984375 13.12109375 C-222.25970961 9.66607839 -222.25970961 9.66607839 -216.41650391 8.26367188 C-215.66031769 8.08215576 -214.90413147 7.90063965 -214.12503052 7.71362305 C-212.6114566 7.35035068 -211.09784585 6.98723176 -209.584198 6.62426758 C-205.06352138 5.5359321 -200.55907355 4.40510636 -196.07714844 3.16503906 C-183.90382864 0.29071133 -176.32059961 1.12109375 -162.3984375 1.12109375 C-162.0684375 31.15109375 -161.7384375 61.18109375 -161.3984375 92.12109375 C-155.1284375 81.56109375 -148.8584375 71.00109375 -142.3984375 60.12109375 C-139.20494663 54.86728619 -136.00982946 49.61742456 -132.78662109 44.38232422 C-130.58642502 40.79839596 -128.40097827 37.20561518 -126.22338867 33.60791016 C-125.01296852 31.62686934 -123.78534832 29.65622944 -122.5402832 27.69677734 C-119.17836539 22.3589837 -116.46647156 17.34383538 -114.60107422 11.30102539 C-113.2734375 8.68359375 -113.2734375 8.68359375 -106.3984375 1.12109375 C-94.5184375 1.12109375 -82.6384375 1.12109375 -70.3984375 1.12109375 C-70.0684375 36.76109375 -69.7384375 72.40109375 -69.3984375 109.12109375 C-60.03137091 96.82681885 -50.73082197 84.60002191 -41.79199219 72.0078125 C-40.3984375 70.12109375 -40.3984375 70.12109375 -38.33752441 67.87120056 C-36.06277895 64.64504656 -35.92115453 63.13121278 -35.97949219 59.23266602 C-35.98559509 58.07118546 -35.991698 56.9097049 -35.99798584 55.71302795 C-36.02185364 54.46710373 -36.04572144 53.2211795 -36.0703125 51.9375 C-36.0740363 49.96910983 -36.0777134 48.00071827 -36.07864761 46.03232479 C-36.08671738 41.19001489 -36.13677009 36.34832763 -36.20947266 31.5065918 C-36.24873005 28.78543418 -36.26661214 26.06565789 -36.26202393 23.34422302 C-36.25926546 20.78533248 -36.28894068 18.22615365 -36.35467529 15.66810608 C-36.30748606 7.22046613 -36.30748606 7.22046613 -33.66955566 4.03024292 C-31.64034251 2.48250988 -29.67084942 1.27409776 -27.3984375 0.12109375 C-26.3671875 -0.49765625 -25.3359375 -1.11640625 -24.2734375 -1.75390625 C-16.73788795 -4.64686435 -6.88389812 -4.23286502 0 0 Z " fill="#000000" transform="translate(418.3984375,306.87890625)"/>
<path d="M0 0 C7.35302761 6.9394198 11.03229213 15.23021344 11.9375 25.1875 C11.1852767 33.76284557 8.13307124 40.03117796 1.625 45.75 C-2.38274451 48.38127059 -6.57284789 50.28149735 -11.375 50.75 C-11.98472656 50.81316406 -12.59445312 50.87632812 -13.22265625 50.94140625 C-21.95284111 51.43257818 -31.35744599 48.52577129 -38.86950684 44.13287354 C-40.78025973 42.37774792 -40.97790158 41.36486721 -41.26147461 38.80761719 C-41.30213569 37.22121532 -41.3052485 35.63355252 -41.27734375 34.046875 C-41.28963516 33.20908508 -41.30192657 32.37129517 -41.31459045 31.50811768 C-41.34633037 28.83785485 -41.33004279 26.17034933 -41.3125 23.5 C-41.32560844 21.68747432 -41.34184802 19.8749684 -41.36132812 18.0625 C-41.40219121 13.62441134 -41.39999407 9.18818672 -41.375 4.75 C-43.26670814 5.34533781 -45.15546229 5.95006589 -47.04296875 6.55859375 C-48.09508545 6.89431396 -49.14720215 7.23003418 -50.23120117 7.57592773 C-59.96462674 11.21093927 -65.8386578 17.54460345 -70.375 26.75 C-78.04057896 45.89057673 -78.38239466 69.29135063 -70.27734375 88.328125 C-64.68160227 99.48167073 -56.29444611 106.40218694 -44.5 110.3828125 C-24.42710507 113.85129067 -7.6271201 105.3383054 9.83764648 96.58862305 C11.625 95.75 11.625 95.75 12.625 95.75 C12.625 104.99 12.625 114.23 12.625 123.75 C-6.32625393 133.22562697 -26.01462075 140.06670553 -47.375 140.75 C-48.39464844 140.78996094 -49.41429687 140.82992187 -50.46484375 140.87109375 C-72.94000617 141.33421831 -93.30730717 135.8640104 -109.81298828 120.30761719 C-124.71932993 105.44321273 -131.6854852 86.12327366 -131.875 65.3125 C-131.68294881 45.92802713 -126.52046739 28.44524881 -113.375 13.75 C-112.73175781 13.01394531 -112.08851563 12.27789062 -111.42578125 11.51953125 C-101.14792656 0.48176124 -88.57656407 -5.83500599 -74.375 -10.25 C-73.33859375 -10.5903125 -72.3021875 -10.930625 -71.234375 -11.28125 C-48.37474512 -17.48436565 -18.91424371 -15.16708222 0 0 Z " fill="#000000" transform="translate(562.375,317.25)"/>
<path d="M0 0 C1.71315226 0.00138269 1.71315226 0.00138269 3.46091366 0.00279331 C4.7664822 0.00141865 6.07205074 0.00004398 7.41718197 -0.00137234 C8.87755512 0.00216728 10.33792804 0.0058021 11.79830074 0.00952244 C13.3255224 0.0098043 14.8527442 0.0096466 16.37996578 0.00907993 C20.5388766 0.00879192 24.69775884 0.01468928 28.85666299 0.02165389 C33.19820497 0.02788677 37.53974753 0.02849118 41.8812933 0.0296793 C50.10839555 0.03279281 58.33548458 0.04100646 66.562581 0.05102879 C75.92639037 0.06218932 85.29020035 0.06770022 94.65401471 0.07272422 C113.92143722 0.08318906 133.18884741 0.10078888 152.45625973 0.12304783 C151.09832762 4.35218706 149.57055824 7.91959235 147.26094723 11.72070408 C146.31566158 13.28594822 146.31566158 13.28594822 145.35127926 14.88281345 C144.68467281 15.9727158 144.01806637 17.06261814 143.33125973 18.18554783 C142.3178149 19.85713963 142.3178149 19.85713963 141.28389645 21.56250095 C139.34732 24.75303277 137.40285187 27.93862004 135.45625973 31.12304783 C134.54458793 32.62161591 133.63309473 34.12029266 132.72188473 35.61914158 C127.65336595 43.9259416 127.65336595 43.9259416 126.45625973 45.12304783 C124.46931121 45.21975582 122.4788696 45.24491835 120.48956966 45.24330235 C118.54383808 45.24536434 118.54383808 45.24536434 116.55879879 45.24746799 C115.10787083 45.24392838 113.6569431 45.24029356 112.20601559 45.23657322 C110.68864602 45.23629136 109.17127631 45.23644906 107.65390682 45.23701572 C103.52185457 45.23730374 99.3898311 45.23140641 95.25778556 45.22444177 C90.94427081 45.21820885 86.63075546 45.21760448 82.3172369 45.21641636 C74.14325856 45.21330286 65.96929352 45.20508922 57.79532105 45.19506687 C48.49197004 45.18390631 39.1886184 45.17839543 29.88526237 45.17337143 C10.74225393 45.16290662 -8.4007421 45.14530682 -27.54374027 45.12304783 C-25.97851306 41.10884245 -24.14492484 37.41718241 -22.05936527 33.64257908 C-21.72128849 33.02968525 -21.38321171 32.41679142 -21.03489017 31.78532505 C-20.32015762 30.49112321 -19.60400396 29.19770529 -18.88651371 27.90503025 C-17.80773902 25.96077747 -16.73397108 24.0138278 -15.66092777 22.0664072 C-3.56733795 0.17256211 -3.56733795 0.17256211 0 0 Z " fill="#FD5007" transform="translate(367.543740272522,222.87695217132568)"/>
<path d="M0 0 C51.48 0 102.96 0 156 0 C154.33288913 4.16777718 152.55454382 7.66585559 150.296875 11.515625 C149.93660217 12.1308905 149.57632935 12.74615601 149.20513916 13.38006592 C148.44361159 14.67867819 147.68037336 15.97628865 146.91552734 17.27294922 C145.76328156 19.22747088 144.61756565 21.18570521 143.47265625 23.14453125 C133.00060596 40.99939404 133.00060596 40.99939404 130 44 C128.02571766 44.0966888 126.04792169 44.12187075 124.0712738 44.12025452 C122.78253357 44.12162918 121.49379333 44.12300385 120.16600037 44.12442017 C118.72451759 44.12088055 117.28303505 44.11724573 115.84155273 44.11352539 C114.33403526 44.11324353 112.82651764 44.11340123 111.31900024 44.1139679 C107.21380656 44.11425591 103.10864185 44.10835861 99.00345492 44.10139394 C94.7179674 44.09516099 90.43247928 44.09455665 86.14698792 44.09336853 C78.02613348 44.09025504 69.90529244 44.08204141 61.78444391 44.07201904 C52.54155126 44.06085845 43.29865798 44.05534759 34.05576026 44.05032361 C15.0371659 44.03985881 -3.98141597 44.02225903 -23 44 C-22.22086459 40.62667758 -21.04003861 37.97036481 -19.375 34.921875 C-18.83230469 33.92414063 -18.28960938 32.92640625 -17.73046875 31.8984375 C-17.15941406 30.85945313 -16.58835937 29.82046875 -16 28.75 C-15.45988281 27.75742188 -14.91976562 26.76484375 -14.36328125 25.7421875 C-9.65473414 17.11533894 -4.81910514 8.56729803 0 0 Z " fill="#FD5107" transform="translate(544,181)"/>
</svg>
