<?xml version="1.0" encoding="UTF-8"?>
<svg version="1.1" xmlns="http://www.w3.org/2000/svg" width="700" height="700">
<path d="M0 0 C12.85019623 10.97840005 22.04431218 25.19375841 24.625 42.125 C26.00790216 62.18908572 22.15796086 80.05714185 8.796875 95.75390625 C-3.15802643 108.80539037 -18.37114932 117.48214254 -36.29296875 118.43359375 C-55.03538202 119.05726459 -71.44339038 114.72514925 -85.6875 101.875 C-98.25538266 90.012697 -106.84281005 74.81874104 -107.66015625 57.33984375 C-108.15977757 38.68790301 -103.77765903 21.50548841 -90.875 7.5 C-66.37131771 -17.86886069 -28.28051969 -21.73089013 0 0 Z M-29.375 -8.875 C-27.06933317 -6.74697454 -27.06933317 -6.74697454 -24.375 -4.875 C-23.385 -5.205 -22.395 -5.535 -21.375 -5.875 C-21.705 -6.535 -22.035 -7.195 -22.375 -7.875 C-24.69656597 -8.28229228 -27.0318787 -8.61938677 -29.375 -8.875 Z M-61.375 -6.875 C-61.045 -6.215 -60.715 -5.555 -60.375 -4.875 C-57.45982708 -5.94901108 -55.59689824 -6.65310176 -53.375 -8.875 C-56.57895416 -8.875 -58.46899739 -8.13164978 -61.375 -6.875 Z M-35.375 -6.875 C-33.395 -3.905 -33.395 -3.905 -31.375 -0.875 C-29.725 -1.205 -28.075 -1.535 -26.375 -1.875 C-30.39847588 -5.34471377 -30.39847588 -5.34471377 -35.375 -6.875 Z M-56.375 -1.875 C-53.9 -1.38 -53.9 -1.38 -51.375 -0.875 C-50.715 -2.525 -50.055 -4.175 -49.375 -5.875 C-52.50823425 -5.875 -54.05520784 -3.82850919 -56.375 -1.875 Z M-44.375 -5.875 C-47.375533 -2.80050253 -47.375533 -2.80050253 -48.375 1.125 C-45.9 1.62 -45.9 1.62 -43.375 2.125 C-43.375 -0.515 -43.375 -3.155 -43.375 -5.875 C-43.705 -5.875 -44.035 -5.875 -44.375 -5.875 Z M-39.375 -5.875 C-39.375 -3.235 -39.375 -0.595 -39.375 2.125 C-37.725 1.795 -36.075 1.465 -34.375 1.125 C-36.355 -2.34 -36.355 -2.34 -38.375 -5.875 C-38.705 -5.875 -39.035 -5.875 -39.375 -5.875 Z M-18.375 -5.875 C-19.035 -4.555 -19.695 -3.235 -20.375 -1.875 C-19.13303878 -0.72045838 -17.88107155 0.42332562 -16.625 1.5625 C-15.92890625 2.20058594 -15.2328125 2.83867187 -14.515625 3.49609375 C-12.36149491 5.13527669 -11.04997543 5.84635673 -8.375 6.125 C-6.08752627 4.90969266 -6.08752627 4.90969266 -4.375 3.125 C-4.375 2.465 -4.375 1.805 -4.375 1.125 C-8.995 -1.185 -13.615 -3.495 -18.375 -5.875 Z M-28.375 2.125 C-27.2655928 5.61170834 -26.11162334 8.89984237 -24.375 12.125 C-20.4257432 11.57394091 -17.02579826 10.73564629 -13.375 9.125 C-19.45331867 0.78328642 -19.45331867 0.78328642 -28.375 2.125 Z M-39.375 5.125 C-39.375 8.425 -39.375 11.725 -39.375 15.125 C-35.21361737 15.20659574 -31.4277516 15.10748524 -27.375 14.125 C-28.4844072 10.63829166 -29.63837666 7.35015763 -31.375 4.125 C-34.1033768 4.125 -36.69154063 4.65831141 -39.375 5.125 Z M-8.375 9.125 C-7.95347656 9.73988281 -7.53195312 10.35476563 -7.09765625 10.98828125 C-6.27587891 12.20064453 -6.27587891 12.20064453 -5.4375 13.4375 C-4.89222656 14.23800781 -4.34695313 15.03851563 -3.78515625 15.86328125 C-2.375 18.125 -2.375 18.125 -1.375 21.125 C2.21891114 19.79011872 5.37990696 18.16477277 8.625 16.125 C7.2417197 11.421847 4.53887738 8.02306188 0.625 5.125 C-3.37404969 5.125 -5.17700422 6.85086967 -8.375 9.125 Z M-86.05859375 7.6796875 C-97.40711322 19.65974346 -101.91859285 32.20828053 -104.375 48.125 C-100.63218762 48.125 -99.31393206 47.03222906 -96.25 44.9375 C-95.36054687 44.34582031 -94.47109375 43.75414062 -93.5546875 43.14453125 C-90.98247812 40.76131933 -90.55800819 39.58600779 -90.375 36.125 C-90.7712711 34.12318885 -90.7712711 34.12318885 -91.375 32.125 C-92.04219776 25.08114165 -91.92186777 18.83441919 -87.375 13.125 C-83.21209419 9.0221361 -79.16228119 7.78902237 -73.375 7.5625 C-67.86162231 7.81247682 -63.9075538 9.01203799 -59.375 12.125 C-58.80910156 12.51042969 -58.24320313 12.89585937 -57.66015625 13.29296875 C-53.98586759 16.06889833 -51.92751373 18.81246187 -50.375 23.125 C-49.7045621 28.39272638 -50.69338075 31.08553928 -53.42578125 35.37109375 C-54.92589486 38.14290861 -55.03680626 41.02489074 -55.375 44.125 C-56.72215026 49.61722798 -56.72215026 49.61722798 -59.0625 51.4375 C-64.47127091 53.04551297 -68.8644811 53.15021282 -74.375 52.125 C-75.365 52.62 -75.365 52.62 -76.375 53.125 C-76.17583984 54.70087891 -76.17583984 54.70087891 -75.97265625 56.30859375 C-75.88765869 56.98519043 -75.80266113 57.66178711 -75.71508789 58.35888672 C-75.52967576 59.83076879 -75.34265773 61.30244943 -75.15405273 62.77392578 C-74.6582382 66.68057993 -74.24698322 70.57343159 -73.9375 74.5 C-73.751875 75.69625 -73.56625 76.8925 -73.375 78.125 C-70.04030188 80.34813208 -68.30920267 80.54714978 -64.375 80.875 C-63.323125 80.97296875 -62.27125 81.0709375 -61.1875 81.171875 C-58.16423597 81.3750378 -58.16423597 81.3750378 -55.375 79.125 C-52.63509592 79.15643293 -50.09082146 79.67978337 -47.375 80.125 C-46.375 83.125 -46.375 83.125 -47.6875 86.75 C-49.375 90.125 -49.375 90.125 -51.375 91.125 C-52.95767815 91.17054469 -54.54213172 91.16337256 -56.125 91.125 C-58.96210837 91.09266828 -61.4484443 91.13777292 -64.25 91.625 C-70.11132924 92.56281268 -76.70632537 93.01455821 -82.375 91.125 C-83.035 93.435 -83.695 95.745 -84.375 98.125 C-80.10323072 102.18839029 -77.49664967 104.02124323 -71.375 104.125 C-64.53877143 103.34566994 -58.18097143 100.65861894 -51.76953125 98.296875 C-47.67025229 96.8817039 -43.61895632 95.98817756 -39.375 95.125 C-38.05079751 94.0206608 -38.05079751 94.0206608 -38.1875 91.25 C-38.22978801 89.87423004 -38.29516658 88.49910257 -38.375 87.125 C-38.40722656 86.2690625 -38.43945312 85.413125 -38.47265625 84.53125 C-39.10032301 78.23690164 -40.61372554 75.40509993 -45.5 71.3125 C-46.86511719 70.31283203 -46.86511719 70.31283203 -48.2578125 69.29296875 C-50.375 67.125 -50.375 67.125 -50.7421875 63.92578125 C-50.375 61.125 -50.375 61.125 -49.375 60.125 C-49.33436168 58.45882885 -49.332279 56.79111905 -49.375 55.125 C-47.395 54.63 -47.395 54.63 -45.375 54.125 C-45.375 52.805 -45.375 51.485 -45.375 50.125 C-44.715 49.795 -44.055 49.465 -43.375 49.125 C-43.87 46.155 -43.87 46.155 -44.375 43.125 C-43.58996094 43.06183594 -42.80492187 42.99867188 -41.99609375 42.93359375 C-35.16449631 42.13727258 -31.6276713 41.15115748 -27.140625 35.9453125 C-22.88588034 31.55878371 -16.97290115 28.88571031 -10.875 28.5625 C-2.50121794 29.10990271 5.03335731 32.93425274 10.625 39.125 C15.99397283 46.00756624 18.3839873 53.32074737 17.625 62.125 C16.02807513 70.29749785 12.97033304 76.73297982 6.328125 81.91796875 C0.70700988 85.59264183 -3.70825356 86.80753588 -10.375 87.125 C-10.705 87.455 -11.035 87.785 -11.375 88.125 C-11.21352617 92.96921485 -11.02422283 95.24133559 -8.125 99.1875 C-5.60720926 101.29554815 -5.60720926 101.29554815 -3 101.375 C7.11196862 96.55977685 14.13115379 83.69686532 18.03295898 73.54980469 C23.88628906 56.33695338 21.71901298 38.38043542 13.875 22.3125 C13.1325 20.930625 12.39 19.54875 11.625 18.125 C7.995 20.105 4.365 22.085 0.625 24.125 C1.615 26.6 1.615 26.6 2.625 29.125 C1.944375 28.63 1.26375 28.135 0.5625 27.625 C-2.96965009 25.82134889 -5.46136991 25.89478647 -9.375 26.125 C-9.375 25.465 -9.375 24.805 -9.375 24.125 C-7.725 23.795 -6.075 23.465 -4.375 23.125 C-5.69360889 18.50986888 -7.58855437 15.02602388 -10.375 11.125 C-14.335 12.775 -18.295 14.425 -22.375 16.125 C-21.055 20.085 -19.735 24.045 -18.375 28.125 C-19.695 28.125 -21.015 28.125 -22.375 28.125 C-22.50777344 27.49851562 -22.64054688 26.87203125 -22.77734375 26.2265625 C-22.95394531 25.40929687 -23.13054687 24.59203125 -23.3125 23.75 C-23.57353516 22.53183594 -23.57353516 22.53183594 -23.83984375 21.2890625 C-24.29830693 19.095537 -24.29830693 19.095537 -25.375 17.125 C-29.995 17.785 -34.615 18.445 -39.375 19.125 C-39.375 22.755 -39.375 26.385 -39.375 30.125 C-36.77625 30.1559375 -36.77625 30.1559375 -34.125 30.1875 C-33.15046875 30.19910156 -32.1759375 30.21070313 -31.171875 30.22265625 C-28.71741322 30.13695577 -26.71331086 29.83206066 -24.375 29.125 C-24.375 29.785 -24.375 30.445 -24.375 31.125 C-29.1793208 33.5271604 -34.10603895 33.73622229 -39.375 34.125 C-39.375 35.775 -39.375 37.425 -39.375 39.125 C-40.695 39.125 -42.015 39.125 -43.375 39.125 C-43.375 32.525 -43.375 25.925 -43.375 19.125 C-45.685 18.465 -47.995 17.805 -50.375 17.125 C-50.87 16.135 -50.87 16.135 -51.375 15.125 C-48.735 15.125 -46.095 15.125 -43.375 15.125 C-43.375 11.825 -43.375 8.525 -43.375 5.125 C-46.015 4.795 -48.655 4.465 -51.375 4.125 C-53.5763866 7.92927492 -53.5763866 7.92927492 -54.375 12.125 C-55.695 11.795 -57.015 11.465 -58.375 11.125 C-57.33333333 9.3671875 -56.29166667 7.609375 -55.25 5.8515625 C-54.22431652 4.15027333 -54.22431652 4.15027333 -54.375 2.125 C-57.09395528 0.74536318 -57.09395528 0.74536318 -60.375 0.125 C-62.99381834 1.90331634 -62.99381834 1.90331634 -65.375 4.125 C-68.1875 4.875 -68.1875 4.875 -70.375 5.125 C-70.375 4.465 -70.375 3.805 -70.375 3.125 C-69.7975 2.8775 -69.22 2.63 -68.625 2.375 C-66.0747003 0.95816683 -64.35714299 -0.75127537 -62.375 -2.875 C-63.035 -3.865 -63.695 -4.855 -64.375 -5.875 C-71.94269074 -5.875 -80.84084688 2.73832209 -86.05859375 7.6796875 Z " fill="#00B0F2" transform="translate(643.375,279.875)"/>
<path d="M0 0 C10.04975309 7.39926875 15.09472991 16.92307246 17.4375 29.125 C18.1862137 35.79535841 18.125 42.53775347 18.125 49.25 C-4.645 49.25 -27.415 49.25 -50.875 49.25 C-50.1472684 65.22286414 -50.1472684 65.22286414 -41.9375 78.375 C-34.40158314 82.98882665 -25.97497368 83.47960099 -17.39453125 81.75 C-12.82617737 80.24150041 -10.27797115 78.36937912 -7.875 74.25 C-6.3990112 70.61640257 -5.13012461 66.97054796 -3.875 63.25 C3.055 63.25 9.985 63.25 17.125 63.25 C14.49228077 75.97480962 9.86417943 84.58660497 -0.875 92.25 C-12.5910868 98.63886934 -27.34620144 100.02110015 -40.26953125 97.0625 C-51.89907265 93.43589638 -60.35648525 87.34608335 -66.1875 76.625 C-74.15635972 59.21076159 -74.43757947 38.18128333 -67.875 20.25 C-62.3456941 8.30177216 -55.0265492 0.46241752 -42.875 -4.75 C-28.75873606 -9.33128253 -12.65792197 -7.79932566 0 0 Z M-46.25 17.1875 C-50.56378629 23.45890126 -50.875 27.38361072 -50.875 35.25 C-35.035 35.25 -19.195 35.25 -2.875 35.25 C-2.875 27.82890694 -3.48060046 20.98935918 -8.0625 14.875 C-14.50529893 8.861721 -20.25312301 7.61317358 -29.0065918 7.71142578 C-37.19438006 8.09404169 -41.25129362 10.98672375 -46.25 17.1875 Z " fill="#00B0F2" transform="translate(405.875,319.75)"/>
<path d="M0 0 C5.86222853 4.94558916 9.94103621 11.26593362 11.125 18.875 C11.212079 21.39967235 11.25162505 23.8953593 11.23852539 26.41918945 C11.23867142 27.16119095 11.23881744 27.90319244 11.2389679 28.66767883 C11.23827404 31.1079099 11.2305064 33.5480636 11.22265625 35.98828125 C11.2207902 37.68507343 11.21936718 39.38186615 11.21836853 41.07865906 C11.2145581 45.5354665 11.20474043 49.99224113 11.19366455 54.44903564 C11.1834187 59.00052446 11.17886412 63.55201859 11.17382812 68.10351562 C11.16311681 77.02736045 11.14553197 85.95117236 11.125 94.875 C4.525 94.875 -2.075 94.875 -8.875 94.875 C-8.88958252 92.76609375 -8.90416504 90.6571875 -8.91918945 88.484375 C-8.96965846 81.49535325 -9.03627489 74.50655143 -9.11071491 67.51774597 C-9.15533108 63.28284632 -9.19460614 59.04804093 -9.22143555 54.81298828 C-9.24755635 50.72144196 -9.28801982 46.63026008 -9.33818626 42.53894043 C-9.35479591 40.98259027 -9.3663468 39.42617715 -9.37261391 37.86975098 C-8.98149574 25.33850939 -8.98149574 25.33850939 -14.18476868 14.37280273 C-19.61426482 9.41274963 -25.26761436 8.45497651 -32.35546875 8.625 C-39.00613676 9.28491124 -45.00259292 12.32655615 -49.875 16.875 C-55.6647879 25.65950578 -55.2028219 36.42178729 -55.2890625 46.53515625 C-55.30780793 47.93477985 -55.32738376 49.33439255 -55.3477478 50.73399353 C-55.39871913 54.38839238 -55.43853018 58.04282774 -55.47589111 61.6973877 C-55.51615238 65.43832161 -55.56714288 69.17910831 -55.6171875 72.91992188 C-55.71353146 80.23818711 -55.79707297 87.55651124 -55.875 94.875 C-62.475 94.875 -69.075 94.875 -75.875 94.875 C-75.875 62.205 -75.875 29.535 -75.875 -4.125 C-69.275 -4.125 -62.675 -4.125 -55.875 -4.125 C-55.545 -0.495 -55.215 3.135 -54.875 6.875 C-54.111875 5.84375 -53.34875 4.8125 -52.5625 3.75 C-39.79500644 -11.24190175 -15.21385437 -10.69013355 0 0 Z " fill="#00B0F2" transform="translate(181.875,320.125)"/>
<path d="M0 0 C6.27 0 12.54 0 19 0 C19.01981934 1.91143799 19.03963867 3.82287598 19.06005859 5.79223633 C19.12815453 12.14656809 19.20495236 18.50074946 19.28752708 24.85490894 C19.33722188 28.70296013 19.3835514 32.55098736 19.421875 36.39916992 C19.45907023 40.12108686 19.50551671 43.84278917 19.55806351 47.56451988 C19.5764275 48.97605263 19.59159987 50.38763105 19.60334396 51.79923439 C19.33095869 67.91396795 19.33095869 67.91396795 26 82 C31.24225932 86.60683394 36.61634886 86.39937354 43.33984375 86.34375 C49.99962331 85.71828511 54.85030036 83.25994064 59.4375 78.4375 C64.66168877 66.9442847 65.13785633 54.5993824 65.31640625 42.1875 C65.3475779 40.37330566 65.3475779 40.37330566 65.37937927 38.52246094 C65.44445043 34.6816951 65.50356152 30.84086436 65.5625 27 C65.60572561 24.3867122 65.64934116 21.77343082 65.69335938 19.16015625 C65.80008807 12.77350299 65.90147371 6.38678485 66 0 C72.27 0 78.54 0 85 0 C85 32.67 85 65.34 85 99 C78.73 99 72.46 99 66 99 C65.67 95.37 65.34 91.74 65 88 C64.05125 89.051875 63.1025 90.10375 62.125 91.1875 C54.34160832 98.97089168 44.04613435 102.26843833 33.1875 102.375 C23.25453882 102.32126506 16.02405051 99.83640412 8.75390625 92.9921875 C2.53566536 85.92915219 -0.32444961 77.67620303 -0.22705078 68.34228516 C-0.22734283 67.60013763 -0.22763489 66.85799011 -0.22793579 66.09335327 C-0.22655072 63.65846765 -0.21102871 61.22389418 -0.1953125 58.7890625 C-0.19157944 57.09370084 -0.18873385 55.39833701 -0.18673706 53.70297241 C-0.1791237 49.25435362 -0.15949505 44.80586672 -0.1373291 40.3572998 C-0.11682107 35.81243676 -0.10772476 31.26755229 -0.09765625 26.72265625 C-0.07624687 17.81503708 -0.04108357 8.90755018 0 0 Z " fill="#00B0F2" transform="translate(3,316)"/>
<path d="M0 0 C7.16281332 6.09877221 11.38093788 13.5720305 13.125 22.8125 C13.125 24.4625 13.125 26.1125 13.125 27.8125 C6.525 27.8125 -0.075 27.8125 -6.875 27.8125 C-7.535 24.8425 -8.195 21.8725 -8.875 18.8125 C-10.38962733 15.9790257 -10.38962733 15.9790257 -11.875 13.8125 C-11.875 13.1525 -11.875 12.4925 -11.875 11.8125 C-12.65875 11.503125 -13.4425 11.19375 -14.25 10.875 C-16.875 9.8125 -16.875 9.8125 -18.875 8.8125 C-30.18957217 7.76354065 -30.18957217 7.76354065 -40.296875 12.0703125 C-48.41900573 21.03682316 -49.24919864 33.12092526 -49.1875 44.625 C-49.18331055 45.68581787 -49.17912109 46.74663574 -49.17480469 47.83959961 C-49.02710336 58.06006026 -47.92664996 67.26899417 -41.875 75.8125 C-36.33021015 81.07294165 -31.12578567 82.27974971 -23.6640625 82.12890625 C-18.2930112 81.5195853 -14.59197418 79.29745064 -10.5625 75.8125 C-7.89747281 71.07467389 -7.03931476 66.11013215 -5.875 60.8125 C0.725 60.8125 7.325 60.8125 14.125 60.8125 C12.70339479 72.8961443 9.28772839 82.18221451 -0.30859375 90.08984375 C-11.33033828 97.48800103 -23.87216818 99.25045145 -36.8125 97.1875 C-47.99996312 94.62630018 -57.3989747 88.82731869 -63.58984375 79.125 C-72.2711632 63.16325862 -73.28895041 43.49788119 -68.91015625 26.0234375 C-64.90188154 13.59022312 -58.10631627 3.37797626 -46.48828125 -2.96875 C-31.70625765 -9.86260854 -13.49953927 -9.65857219 0 0 Z " fill="#00B0F2" transform="translate(312.875,320.1875)"/>
<path d="M0 0 C0.78117187 -0.00773437 1.56234375 -0.01546875 2.3671875 -0.0234375 C3.51574219 -0.01957031 3.51574219 -0.01957031 4.6875 -0.015625 C5.37199219 -0.01336914 6.05648437 -0.01111328 6.76171875 -0.00878906 C9 0.25 9 0.25 15 2.25 C15 7.53 15 12.81 15 18.25 C13.02 18.20875 11.04 18.1675 9 18.125 C2.27759767 18.125 -3.27670302 18.43446868 -9 22.25 C-10.11401232 25.2527418 -10.18696908 28.2726687 -10.31640625 31.453125 C-10.35451416 32.33645508 -10.39262207 33.21978516 -10.43188477 34.12988281 C-10.47498779 35.24202148 -10.51809082 36.35416016 -10.5625 37.5 C-10.706875 41.0475 -10.85125 44.595 -11 48.25 C-3.41 48.25 4.18 48.25 12 48.25 C12 52.87 12 57.49 12 62.25 C4.41 62.25 -3.18 62.25 -11 62.25 C-11 90.3 -11 118.35 -11 147.25 C-17.6 147.25 -24.2 147.25 -31 147.25 C-31 119.53 -31 91.81 -31 63.25 C-36.28 62.92 -41.56 62.59 -47 62.25 C-47 57.63 -47 53.01 -47 48.25 C-41.39 48.25 -35.78 48.25 -30 48.25 C-30.33 47.59 -30.66 46.93 -31 46.25 C-31.96625236 33.58316234 -32.49008501 19.87930028 -24.7734375 9.2265625 C-18.13344016 1.82603683 -9.56501932 -0.09470316 0 0 Z " fill="#00B0F2" transform="translate(474,267.75)"/>
<path d="M0 0 C6.6 0 13.2 0 20 0 C20 33 20 66 20 100 C13.4 100 6.8 100 0 100 C0 67 0 34 0 0 Z " fill="#00B0F2" transform="translate(209,315)"/>
<path d="M0 0 C2.37023401 0.40313406 3.51053785 -0.06928172 5.71875 -0.98828125 C22.53168042 -6.94000376 40.94436846 -4.91049794 57.90625 -0.67578125 C58.89625 -0.18078125 58.89625 -0.18078125 59.90625 0.32421875 C59.90625 0.98421875 59.90625 1.64421875 59.90625 2.32421875 C57.51093067 2.97200951 55.11503252 3.61750884 52.71875 4.26171875 C52.04521484 4.44412109 51.37167969 4.62652344 50.67773438 4.81445312 C40.02988063 7.67119437 29.21113531 9.36113579 18.90625 4.32421875 C17.91625 3.33421875 17.91625 3.33421875 16.90625 2.32421875 C14.68496445 2.30113278 14.68496445 2.30113278 12.28125 2.69921875 C11.46398437 2.81007813 10.64671875 2.9209375 9.8046875 3.03515625 C9.17820312 3.13054687 8.55171875 3.2259375 7.90625 3.32421875 C8.60234375 3.87078125 9.2984375 4.41734375 10.015625 4.98046875 C13.14208324 7.51543489 16.1644513 10.13306649 19.15625 12.82421875 C19.69765625 13.29730469 20.2390625 13.77039063 20.796875 14.2578125 C22.99206345 16.23897008 24.70870113 17.835369 25.828125 20.60546875 C25.85390625 21.17265625 25.8796875 21.73984375 25.90625 22.32421875 C24.90625 23.32421875 24.90625 23.32421875 22.5390625 23.60546875 C19.90625 23.32421875 19.90625 23.32421875 18.2734375 21.85546875 C17.78101563 21.18515625 17.28859375 20.51484375 16.78125 19.82421875 C12.66915141 14.79230863 7.8054276 10.16069647 1.90625 7.32421875 C-4.99593367 8.91540918 -11.07582374 14.835828 -15.34375 20.26171875 C-17.74910576 23.27177289 -17.74910576 23.27177289 -20.96875 23.76171875 C-21.67 23.61734375 -22.37125 23.47296875 -23.09375 23.32421875 C-23.8359375 21.59765625 -23.8359375 21.59765625 -24.09375 19.32421875 C-19.48445106 12.95458453 -12.75571771 8.34029857 -6.09375 4.32421875 C-9.62805656 1.96801438 -10.92946287 1.83430262 -15.09375 2.32421875 C-17.12506672 3.60933749 -19.12652992 4.94297912 -21.09375 6.32421875 C-33.302142 9.48785521 -45.4613299 6.20169212 -57.09375 2.32421875 C-56.76375 1.33421875 -56.43375 0.34421875 -56.09375 -0.67578125 C-36.87859369 -4.8495652 -19.06900918 -6.15473617 0 0 Z " fill="#00B0F2" transform="translate(601.09375,409.67578125)"/>
<path d="M0 0 C7.59 0 15.18 0 23 0 C23 7.26 23 14.52 23 22 C15.41 22 7.82 22 0 22 C0 14.74 0 7.48 0 0 Z " fill="#00B0F2" transform="translate(208,272)"/>
<path d="M0 0 C0 5.57506582 -4.53659605 9.86987604 -8 14 C-14.40330114 19.94675865 -20.02459526 22.34364643 -28.8125 22.125 C-29.85180664 22.11146484 -29.85180664 22.11146484 -30.91210938 22.09765625 C-32.60822395 22.07426157 -34.30415871 22.03839641 -36 22 C-32.2924069 13.42848526 -20.30858619 7.63261533 -12.09277344 4.20410156 C-8.1047492 2.67236907 -4.06776227 1.30577576 0 0 Z " fill="#00B0F2" transform="translate(684,384)"/>
<path d="M0 0 C6.02986328 0.47621835 10.47443122 1.76492481 15.8125 4.5625 C16.50102051 4.91602539 17.18954102 5.26955078 17.89892578 5.63378906 C34.28827476 14.26538566 34.28827476 14.26538566 37 21 C20.55592281 21.77081612 20.55592281 21.77081612 14 17 C13.01 16.319375 12.02 15.63875 11 14.9375 C6.55486629 11.04493816 3.23844007 5.89875706 0 1 C0 0.67 0 0.34 0 0 Z " fill="#00B0F2" transform="translate(519,385)"/>
<path d="M0 0 C11.90106936 5.55383237 23.70699166 19.05003689 28.24609375 31.38671875 C28.49488281 32.24910156 28.74367188 33.11148438 29 34 C16.93886874 30.33033666 9.3188201 22.92630512 3.33984375 11.953125 C1.53222002 7.96897473 0.64784107 4.31894049 0 0 Z " fill="#00B0F2" transform="translate(507,355)"/>
<path d="M0 0 C1.81699071 5.45097213 -0.89187835 10.85423908 -3 16 C-6.39618315 21.67785658 -10.37606308 24.94486358 -16.77734375 26.6796875 C-20.10347162 27.15902403 -22.73661632 26.76377065 -26 26 C-24.51950874 21.04357275 -21.6679278 18.20573737 -18.0625 14.6875 C-17.48927002 14.1200708 -16.91604004 13.5526416 -16.32543945 12.96801758 C-11.26489067 8.05817588 -5.88090398 3.90096036 0 0 Z " fill="#00B0F2" transform="translate(657,378)"/>
<path d="M0 0 C1 2 1 2 0.46875 4.25 C-3.42836057 15.31276548 -9.80354105 26.04834526 -20.73046875 31.31640625 C-23.13484107 32.28968531 -25.53720912 33.18748088 -28 34 C-24.18502042 20.88720585 -12.48945958 9.34875355 -2 1 C-1.34 0.67 -0.68 0.34 0 0 Z " fill="#00B0F2" transform="translate(696,355)"/>
<path d="M0 0 C10.40494516 5.57268598 19.91958487 14.52473857 27 24 C27 24.66 27 25.32 27 26 C21.00994829 27.401927 16.47942107 26.9288233 11 24 C3.70684636 18.52655267 1.81498544 10.59017953 0 2 C0 1.34 0 0.68 0 0 Z " fill="#00B0F2" transform="translate(546,378)"/>
<path d="M0 0 C0.99 0 1.98 0 3 0 C5.35677265 9.15440615 6.00577373 17.58487074 1.3203125 26.10546875 C-1.03381997 29.4834399 -3.9476849 32.25634598 -7 35 C-7.99 34.67 -8.98 34.34 -10 34 C-9.6884254 22.21681494 -5.7506196 10.22332374 0 0 Z " fill="#00B0F2" transform="translate(667,358)"/>
<path d="M0 0 C0.66 0 1.32 0 2 0 C8.1633869 11.19008359 11.53896262 22.20621265 12 35 C8.13506486 33.70281867 5.95034996 32.28771467 3.3125 29.1875 C2.73113281 28.52105469 2.14976562 27.85460937 1.55078125 27.16796875 C-1.88070618 22.37080119 -2.27338504 18.34626077 -2.25 12.5 C-2.25515625 11.2109375 -2.2603125 9.921875 -2.265625 8.59375 C-2.01830367 5.2476379 -1.4505069 2.99310947 0 0 Z " fill="#00B0F2" transform="translate(535,358)"/>
<path d="M0 0 C0.66 0 1.32 0 2 0 C9.29877369 9.73902634 16.60621619 23.57256816 16 36 C9.33554405 33.28485128 5.10673301 27.25881979 2 21 C-0.467688 14.1820579 -0.21805016 7.15931356 0 0 Z " fill="#00B0F2" transform="translate(505,326)"/>
<path d="M0 0 C0.66 0 1.32 0 2 0 C4.48403335 10.63166272 4.4441833 25.25536938 -1 35 C-1.66 35 -2.32 35 -3 35 C-6.91861027 28.07245685 -8.03900104 21.91080991 -7 14 C-5.53695858 8.79728199 -3.56363273 4.11548137 0 0 Z " fill="#00B0F2" transform="translate(530,337)"/>
<path d="M0 0 C3.63013639 1.21004546 3.87693578 2.03622012 5.625 5.3125 C6.05039062 6.09238281 6.47578125 6.87226563 6.9140625 7.67578125 C9.91599676 14.10078442 10.26878059 22.04960455 8.10546875 28.78515625 C7.15028018 30.914923 6.14886399 32.9689726 5 35 C4.01 34.67 3.02 34.34 2 34 C-0.65189192 22.72945935 -2.65111323 11.50241062 0 0 Z " fill="#00B0F2" transform="translate(672,337)"/>
<path d="M0 0 C0.33 0 0.66 0 1 0 C1.70000184 10.94076951 1.72816783 19.72128489 -5 29 C-7.23483582 31.44767733 -9.24696771 33.09405457 -12 35 C-12.66 35 -13.32 35 -14 35 C-13.40331544 23.26520375 -8.47014695 8.47014695 0 0 Z " fill="#00B0F2" transform="translate(697,327)"/>
<path d="M0 0 C0.66 0 1.32 0 2 0 C5.55362247 11.75600893 7.49989505 23.81301161 5 36 C1.7662902 34.65488542 0.28646465 33.53328844 -1.25 30.375 C-4.56843149 22.26910807 -4.22505683 11.74036325 -1.5 3.5 C-1.005 2.345 -0.51 1.19 0 0 Z " fill="#00B0F2" transform="translate(512,300)"/>
<path d="M0 0 C0.66 0 1.32 0 2 0 C4.4634688 5.74809387 5.32304783 10.88496726 5.375 17.125 C5.38853516 17.79337891 5.40207031 18.46175781 5.41601562 19.15039062 C5.35870112 25.61419347 3.66881018 30.17595167 -0.6875 34.9375 C-1.8321875 35.9584375 -1.8321875 35.9584375 -3 37 C-4.33796005 24.41594334 -4.40641341 12.0665076 0 0 Z " fill="#00B0F2" transform="translate(690,300)"/>
<path d="M0 0 C0.87512541 11.15784899 -3.70924359 21.39424144 -9 31 C-9.99 31 -10.98 31 -12 31 C-14.1745093 24.4764721 -13.83944324 17.95442768 -10.875 11.75 C-4.28674121 0 -4.28674121 0 0 0 Z " fill="#00B0F2" transform="translate(531,318)"/>
<path d="M0 0 C5.94591843 2.52990482 8.79206684 7.86598475 11.875 13.3125 C13.53297818 18.74698404 14.31435406 24.99360394 11.98046875 30.33203125 C11.65691406 30.88246094 11.33335937 31.43289063 11 32 C4.44215949 26.22376258 0.46348428 14.19658325 -0.1796875 5.59765625 C-0.18624931 3.73082127 -0.10355401 1.86397223 0 0 Z " fill="#00B0F2" transform="translate(673,318)"/>
<path d="M0 0 C-3.03894 9.87284896 -8.140672 20.07445355 -16 27 C-16.99 27.33 -17.98 27.66 -19 28 C-18.68212023 19.21062447 -17.58444688 13.95208246 -11.5625 7.3125 C-3.45945946 0 -3.45945946 0 0 0 Z " fill="#00B0F2" transform="translate(538,297)"/>
<path d="M0 0 C8.01178446 4.86048257 14.48282798 9.78896256 17.54296875 18.93359375 C18.29819753 22.34826062 18.18668564 25.51520133 18 29 C17.01 28.67 16.02 28.34 15 28 C15 27.34 15 26.68 15 26 C14.34 26 13.68 26 13 26 C11.44040652 23.88340885 10.0186762 21.78518547 8.625 19.5625 C8.221604 18.92594482 7.81820801 18.28938965 7.40258789 17.63354492 C0 5.75846632 0 5.75846632 0 0 Z " fill="#00B0F2" transform="translate(667,296)"/>
<path d="M0 0 C6.71486021 5.24474288 13.20030228 11.36145092 15 20 C15.13702833 22.69162788 15.09307047 25.30095651 15 28 C14.01 28 13.02 28 12 28 C4.80459899 20.15350702 0.7793967 10.5218555 0 0 Z " fill="#00B0F2" transform="translate(672,282)"/>
<path d="M0 0 C-1.28969974 10.05076352 -5.17193049 19.41172033 -12 27 C-12.66 27 -13.32 27 -14 27 C-15.89252175 23.21495649 -14.92817 19.00488167 -14 15 C-11.72314362 10.33467664 -5.72776323 0 0 0 Z " fill="#00B0F2" transform="translate(532,283)"/>
</svg>
